<?xml version="1.0" encoding="utf-8"?>
<!-- Generator: Adobe Illustrator 16.0.0, SVG Export Plug-In . SVG Version: 6.00 Build 0)  -->
<!DOCTYPE svg PUBLIC "-//W3C//DTD SVG 1.1//EN" "http://www.w3.org/Graphics/SVG/1.1/DTD/svg11.dtd">
<svg version="1.1" id="Layer_1" xmlns="http://www.w3.org/2000/svg" xmlns:xlink="http://www.w3.org/1999/xlink" x="0px" y="0px"
	 width="1440px" height="1440px" viewBox="0 0 1440 1440" enable-background="new 0 0 1440 1440" xml:space="preserve">
<polygon fill="#C7E5E2" stroke="#00A79D" stroke-width="32" stroke-miterlimit="10" points="416.17,528.858 746.497,338.145 
	1076.823,528.858 1076.823,910.287 746.497,1101.001 416.17,910.287 "/>
<g>
	<defs>
		<polygon id="SVGID_1_" points="430.129,536.917 746.497,354.263 1062.865,536.917 1062.865,902.229 746.497,1084.884 
			430.129,902.229 		"/>
	</defs>
	<clipPath id="SVGID_2_">
		<use xlink:href="#SVGID_1_"  overflow="visible"/>
	</clipPath>
	<g clip-path="url(#SVGID_2_)">
		<path fill="none" d="M324.683,744.971c0-135.391,0.004-270.78-0.039-406.17c0-1.741,0.208-2.346,2.204-2.345
			c262.447,0.058,524.894,0.058,787.34,0c1.996,0,2.205,0.605,2.204,2.346c-0.042,136.38-0.04,272.76-0.04,409.139
			c-2.291,0.229-4.58,0.602-6.875,0.657c-4.201,0.102-8.271,1.521-12.514,1.117c-1.561-0.148-3.021-0.965-4.62-0.734
			c-5.665,0.82-11.368,0.234-17.045,0.5c-2.812,0.131-5.583-0.122-8.372-0.329c-5.874-0.437-11.619-2.001-17.635-1.367
			c-4.051,0.427-8.172-0.202-12.242-0.916c-1.928-0.339-3.821-1.826-5.731-1.074c-5.133,2.021-10.28,0.738-15.362,0.243
			c-5.191-0.504-10.369-0.809-15.549-0.512c-6.145,0.354-6.264,0.646-5.979,6.723c0.021,0.486,0.152,0.971,0.253,1.453
			c0.521,2.53-0.052,3.379-2.528,3.092c-7.076-0.817-14.171-0.332-21.256-0.427c-2.998-0.04-5.34-0.768-6.293-3.95
			c-0.586-1.959-1.986-2.629-3.984-2.512c-3.526,0.207-7.027,0.239-10.551-0.485c-2.712-0.556-4.543,0.892-5.292,3.491
			c-2.997-3.143-6.458-4.107-10.725-2.766c-1.106,0.349-2.024,0.463-3.057-0.043c-2.616-1.282-5.424-1.203-8.24-1.178
			c-1.989,0.019-2.672,0.951-2.339,2.816c0.188,1.062,0.623,2.158-0.418,3.215c-0.283-2.942-2.43-4.572-4.414-5.789
			c-1.885-1.158-4.443-0.984-6.734-0.533c-0.999,0.199-1.087,1.092-1.072,1.972c0.022,1.501,0.006,3.003,0.006,5.088
			c-1.707-2.884-0.592-6.825-4.625-7.214c-6.003-0.58-6.012-0.49-9.066,6.352c0-1.562,0.029-2.941-0.01-4.318
			c-0.035-1.264-0.712-2.032-1.998-2.05c-2.639-0.033-5.264-0.18-7.889-0.486c-1.695-0.198-2.633,0.586-2.616,2.418
			c0.009,1.087,0.215,2.234-0.487,3.872c-0.53-3.664-3.002-5.095-5.32-6.303c-2.127-1.109-4.811-0.983-6.989-0.12
			c-1.841,0.729-0.485,3-0.947,4.515c-0.138,0.451-0.073,0.966-0.128,1.921c-0.438-1.171-0.708-1.909-0.992-2.644
			c-1.529-3.952-1.895-4.184-6.047-3.109c-1.465,0.38-2.726,0.236-4.031-0.477c-1.764-0.963-2.66-0.271-2.712,1.644
			c-0.038,1.422-0.007,2.846-0.007,4.634c-0.499-0.499-0.67-0.59-0.705-0.717c-1.428-5.178-6.646-8.072-11.741-6.548
			c-0.874,0.262-0.979,0.897-1.288,1.597c-0.757,1.717-0.333,3.605-0.777,5.695c-0.863-1.016-0.426-1.92-0.689-2.645
			c-0.568-1.554-0.377-3.845-2.521-4.135c-2.922-0.396-5.869-0.869-8.859-0.647c-1.424,0.104-2.111,0.759-2.111,2.167
			c0,1.511,0,3.021,0,4.533c-0.211,0.02-0.422,0.037-0.633,0.057c-0.486-1.552-0.489-3.111-1.875-4.497
			c-2.83-2.83-6.109-2.276-9.43-2.313c-2.133-0.024-2.948,1.01-2.937,3.04c0.007,1.211,0.227,2.495-0.409,3.958
			c-0.797-1.354-0.528-2.449-0.551-3.496c-0.066-3.057-0.457-3.637-3.525-3.836c-2.795-0.181-5.607-0.041-8.412-0.1
			c-1.799-0.037-2.544,0.813-2.484,2.562c0.048,1.4,0.01,2.804,0.01,4.206c-1.134-1.786-1.871-3.529-2.502-5.311
			c-0.533-1.503-1.424-2.084-3.029-1.693c-1.105,0.269-2.235,0.572-3.412,0.338c-5.902-1.17-5.933-1.168-6.415,4.912
			c-0.113,1.431-0.667,2.109-2.253,1.988c0.295-1.068,0.59-2.074,0.85-3.09c0.723-2.833,0.4-3.315-2.371-3.941
			c-3.349-0.759-6.733-0.519-10.103-0.363c-2.124,0.099-3.091,1.274-2.626,3.506c0.23,1.098,0.762,2.291-0.168,3.621
			c-0.885-1.834-0.535-3.511-0.606-5.129c-0.077-1.733-0.913-2.575-2.627-2.569c-2.309,0.008-4.629-0.114-6.925,0.062
			c-4.927,0.38-5.652,1.14-6.184,5.843c-0.031,0.279,0.146,0.66-0.354,0.825c-0.229-1.632-0.562-3.24-0.652-4.863
			c-0.111-2.013-1.271-2.622-2.971-2.323c-3.371,0.594-6.722-0.109-10.086-0.018c-2.143,0.059-3.018,0.814-2.955,2.923
			c0.037,1.244,0.229,2.546-0.316,3.947c-0.896-0.966-0.511-1.911-0.607-2.759c-0.095-0.84-0.209-1.635-0.904-2.218
			c-4.154-3.483-11.563-3.086-13.394,3.239c-0.451,1.557-1.226,2.47-2.986,2.202c-1.837-0.28-1.505-1.708-1.506-2.88
			c-0.002-1.496-0.223-2.729-1.81-3.428c-3.553-1.565-7.286-2.219-11.085-1.766c-7.674,0.918-15.238,2.635-22.96,3.234
			c-1.014,0.078-2.116,0.299-2.736,1.02c-2.75,3.198-6.194,3.607-10.05,2.902c-1.038-0.189-2.14-0.01-3.212-0.031
			c-11.867-0.229-23.733-0.041-35.607-0.324c-13.672-0.327-27.354-0.862-41.044-0.688c-8.312,0.107-16.644,0.4-24.967-0.645
			c2.812-1.812,4.72-4.51,6.577-7.151c3.271-4.653,6.239-9.474,6.716-15.432c0.206-2.573-0.338-4.238-2.863-5.265
			c-2.474-1.004-4.894-1.883-7.631-1.69c-1.638,0.115-3.321,0.131-4.939-0.108c-7.38-1.094-14.747-1.503-22.126-0.046
			c-0.995,0.196-1.964,0.007-2.944-0.161c-4.985-0.853-10.083-1.368-14.986-0.233c-3.553,0.822-7.009,1.612-10.668,1.584
			c-2.806-0.021-3.188,0.623-2.399,3.311c0.673,2.297,1.594,4.625,1.085,7.022c-0.922,4.339-1.884,8.64-1.987,13.114
			c-0.037,1.589-0.275,3.444-2.127,4.506c-0.428-0.787-0.076-1.299,0.096-1.811c0.565-1.688,0.275-2.514-1.804-2.678
			c-2.318-0.182-4.581-0.025-6.88,0.035c-4.095,0.105-8.153,1.092-12.308,0.278c-3.027-0.594-6.082-1.009-9.206,0.264
			c-1.927,0.786-4.139,0.688-6.33,0.28c-5.225-0.971-10.508-2.252-15.695,0.269c-0.142,0.069-0.322,0.06-0.486,0.085
			c-7.536,1.16-15.125-0.372-22.669,0.442c-0.239,0.026-0.489-0.064-0.735-0.089c-5.348-0.537-10.692-0.427-16.041,0.014
			c-3.106,0.256-6.273,1.53-9.279,0.739c-3.26-0.859-6.346-1.482-9.66-0.615c-0.852,0.223-1.859,0.255-2.704,0.03
			c-3.711-0.986-7.195,0.062-10.685,1.043c-1.405,0.396-2.823,0.557-4.112-0.083c-4.93-2.446-10.061-0.761-15.083-0.716
			c-2.229,0.021-4.238,0.514-5.614-1.81c-0.247-0.417-0.935-0.702-1.465-0.8c-3.419-0.635-6.854-0.952-10.307-0.195
			c-0.679,0.148-1.645,0.785-1.989-0.082c-0.401-1.013,0.965-0.814,1.407-1.312c0.132-0.147,0.171-0.376,0.269-0.606
			c-1.482-0.658-2.642,0.072-3.852,0.553c-1.731,0.687-3.665,1.203-5.122-0.16c-1.708-1.6-2.16-0.743-2.616,0.834
			C325.058,743.721,324.868,744.346,324.683,744.971z M880.695,736.565c-0.441-0.595-0.975-1.144-1.31-1.794
			c-1.333-2.588-3.358-3.49-6.269-3.216c-5.225,0.493-10.438,0.048-15.644-0.595c-1.361-0.168-3.306-0.624-3.942,1.118
			c-0.787,2.146-1.781,1.534-2.854,0.565c-2.507-2.266-5.71-1.711-8.637-2.229c-0.745-0.131-1.965-0.082-2.25,0.697
			c-1.215,3.312-2.725,1.211-4.116,0.305c-3.05-1.989-8.63-1.918-11.412,0.299c-0.723,0.577-1.284,0.286-1.778-0.066
			c-2.54-1.822-5.465-2.036-8.439-2.322c-3.748-0.36-4.753,0.556-4.02,4.211c0.193,0.966,0.572,1.893,0.818,2.85
			c0.258,1.01,0.855,1.533,1.904,1.613c1.969,0.152,3.931,0.453,5.9,0.5c4.236,0.104,4.4-0.07,5.452-4.049
			c0.044-0.166,0.258-0.285,0.521-0.561c0.23,1.07,0.469,1.941,0.594,2.828c0.169,1.179,0.832,1.639,1.977,1.799
			c4.148,0.584,8.242,1.088,11.064-3.078c0.066-0.098,0.293-0.086,0.664-0.183c-0.264,3.353,2.156,3.483,4.484,3.737
			c1.473,0.161,2.939,0.409,4.416,0.489c4.33,0.233,4.541,0.057,5.445-3.981c0.729,0.688,0.446,1.526,0.395,2.314
			c-0.067,1.04,0.485,1.606,1.438,1.615c3.452,0.033,7.07,0.83,10.295-0.449c2.377-0.943,4.215-0.484,6.275,0.295
			c2.66,1.007,7.147-0.375,9.006-2.747c2.164,2.397,5.023,3.197,8.09,3.577c4.024,0.498,4.069,0.498,5.281-2.574
			c3.164,2.701,6.919,3.254,10.896,3.002c0.884-0.057,1.726-0.33,1.853-1.309c0.312-2.396,1.441-1.447,2.351-0.547
			c1.845,1.828,3.951,2.242,6.366,1.521c1.184-0.354,2.41-0.61,3.541-1.09c1.137-0.482,2.189-0.382,3,0.386
			c2.075,1.963,4.33,1.606,6.676,0.759c1.763-0.637,3.495-1.858,5.236,0.184c0.295,0.346,1.334,0.344,1.889,0.134
			c3.137-1.185,6.111,0.497,9.172,0.599c2.658,0.088,5.356,0.436,8.059,0.307c0.835-0.04,1.762-0.141,2.141-0.98
			c0.568-1.258,1.472-1.103,2.152-0.436c3.014,2.954,6.977,0.16,10.178,1.784c2.205-1.782,5.096-0.836,7.521-1.9
			c1.561-0.686,3.411-1.193,4.292,1.192c0.229,0.622,0.742,0.871,1.388,0.756c0.635-0.115,1.014-0.554,1.16-1.15
			c0.116-0.476,0.154-0.973,0.193-1.463c0.041-0.516,0.095-1.032,0.73-1.104c0.688-0.078,1.145,0.317,1.223,0.957
			c0.271,2.255,0.379,4.644,3.741,2.872c0.149-0.079,0.487,0.078,0.677,0.211c1.018,0.714,2.045,0.939,2.72-0.322
			c0.61-1.139,0.819-2.659-0.257-3.438c-2.678-1.94-5.162-4.322-9.064-3.668c-2.723,0.456-5.562,0.022-8.342-0.013
			c-4.847-0.062-9.68-0.646-14.54-0.741c-2.279-0.045-3.812,0.432-3.7,3.464c-1.958-4.136-2.993-4.466-8.672-3.931
			c-2.527,0.238-1.885,2.208-2.387,4.347c-1.473-3.089-3.293-4.69-6.285-4.658c-1.551,0.017-3.127-0.444-4.628,0.187
			c-1.468,0.616-0.883,2.305-1.692,3.982c-1.605-4.482-4.924-4.83-8.412-4.293c-3.444,0.529-6.796-0.211-10.188-0.328
			c-1.393-0.048-2.779-0.271-4.182-0.123c-1.931,0.202-1.557,2.223-2.629,3.655c-1.4-3.565-4.277-3.724-7.203-4.066
			c-4.241-0.497-4.988,0.04-4.967,4.308c0.002,0.33,0.008,0.66,0.012,0.989c-1.795-5.11-5.897-6.077-10.632-5.956
			c-1.815,0.045-2.754,0.902-2.769,2.728C880.658,735.082,880.685,735.824,880.695,736.565z M940.447,700.262
			c-5.011-0.743-9.934-1.906-14.902-0.994c-3.088,0.567-6.049,0.63-9.025-0.218c-1.111-0.316-3.076-0.289-2.781-1.805
			c0.369-1.888,2.298-0.838,3.355-0.584c6.539,1.571,12.887,1.386,19.071-1.444c0.595-0.272,1.249-0.44,1.892-0.568
			c0.619-0.125,1.203-0.042,1.117,0.831c-0.267,2.767,1.594,2.203,2.832,1.504c1.625-0.916,2.919-0.708,4.377,0.136
			c1.846,1.07,3.79,1.115,5.939,1.021c2.4-0.105,4.822-1.949,7.326-0.064c0.686,0.514,3.889-2.222,3.852-3.186
			c-0.071-1.845-1.402-1.96-2.809-1.983c-0.775-0.013-1.57-0.171-1.572-1.17c-0.002-0.976,0.767-1.153,1.551-1.224
			c0.328-0.031,0.662-0.029,0.986-0.076c0.572-0.083,1.211-0.138,1.324-0.869c0.109-0.697-0.387-1.104-0.939-1.285
			c-2.795-0.912-4.383-3.402-6.609-5.055c-1.41-1.045-2.705-1.492-4.332-0.918c-3.08,1.088-6.256,1.343-9.502,1.291
			c-2.879-0.046-5.768,0.232-8.631,0.297c-4.028,0.092-8.881,1.922-11.11-3.943c-0.725-1.909-0.877-2.639,1.171-3.421
			c2.318-0.886,2.422-1.774,0.817-3.663c-0.545-0.642-0.523-1.365-0.551-2.093c-0.042-1.11-0.528-1.933-1.563-2.297
			c-1.821-0.641-2.307-2.021-2.623-3.783c-0.35-1.948-0.107-3.774,0.326-5.624c0.351-1.498,0.547-2.83-0.88-4.034
			c-0.985-0.831-0.78-1.728,0.654-2.09c0.853-0.215,2.446,0.464,2.378-0.855c-0.06-1.117-1.646-0.592-2.565-0.752
			c-0.894-0.155-1.788-0.289-2.681-0.445c-0.814-0.142-1.373-0.566-1.43-1.448c-0.141-2.226-1.142-4.311-1.029-6.584
			c0.074-1.467,0.021-2.919-2.084-2.86c-2.148,0.06-1.984,1.637-1.912,3.021c0.1,1.879-0.348,3.374-2.066,4.409
			c-1.194,0.719-1.217,1.854-1.168,3.227c0.107,2.901,2.395,5.014,2.438,7.969c0.026,1.805-0.531,2.248-2.04,2.095
			c-1.639-0.165-3.27-0.409-4.9-0.641c-0.813-0.117-1.758-0.462-2.227,0.461c-0.589,1.162,0.635,1.346,1.244,1.723
			c4.928,3.046,7.445,7.717,8.09,13.208c0.518,4.389,0.33,8.865,1.294,13.224c0.237,1.07,0.213,2.094-0.97,2.46
			c-1.413,0.438-1.822-0.704-2.219-1.734c-0.583-1.512-0.267-3.108-0.449-4.655c-0.222-1.879-1.166-2.307-2.516-1.115
			c-0.668,0.59-1.371,0.892-2.199,0.991c-2.694,0.321-5.393,0.619-8.088,0.929c-2.039,0.236-4.131,0.269-6.004,1.249
			c-0.807,0.421-1.658,0.992-1.696,1.98c-0.042,1.081,1.011,1.1,1.756,1.402c1.883,0.765,1.71,2.479,1.628,4.004
			c-0.091,1.687-1.451,1.646-2.744,1.756c-3.229,0.271-6.387,0.43-9.406-1.18c-1.21-0.645-2.285-0.255-2.402,1.396
			c-0.053,0.725-0.277,1.319-1.166,1.266c-1.539-0.092-3.1-0.07-4.607-0.337c-1.751-0.311-2.813-0.214-2.966,2.001
			c-0.145,2.115-1.132,2.513-3.041,1.442c-1.505-0.845-2.972-1.8-4.057-3.191c-0.883-1.132-2.057-1.92-3.228-2.665
			c-1.955-1.244-3.135-0.589-3.232,1.699c-0.039,0.902-0.032,1.815,0.059,2.712c0.141,1.391-0.509,1.745-1.764,1.583
			c-5.569-0.716-11.174-0.811-16.777-0.818c-2.547-0.003-4.897-0.562-7.064-1.906c-1.648-1.02-0.986-2.849-1.517-4.26
			c-0.694-1.85-3.485-2.821-3.688-1.567c-0.52,3.194-2.527,3.116-4.791,3.191c-0.324,0.011-0.654,0.468-0.947,0.753
			c-2.691,2.627-4.955,3.061-8.342,1.427c-1.441-0.695-2.893-1.085-4.495-1.183c-3.972-0.244-7.878-0.923-11.393-2.901
			c-3.177-1.787-6.687-1.53-10.093-1.926c-1.615-0.188-2.943,0.237-3.403,2.083c-0.271,1.089-0.985,1.72-1.925,0.727
			c-2.121-2.242-4.965-2.406-7.696-2.919c-0.774-0.145-1.678-0.691-2.339,0.064c-0.865,0.989,0.957,1.344,0.714,2.272
			c-1.223,0.422-1.687-0.377-2.049-1.239c-0.392-0.931-1.062-1.308-2.038-1.552c-2.178-0.543-3.417,0.291-4.258,2.266
			c-0.477,1.121-1.162,2.313-2.72,2.085c-1.701-0.25-1.349-1.592-1.29-2.716c0.054-1.033-0.553-1.464-1.409-1.747
			c-1.951-0.642-3.478-0.131-4.849,1.428c-2.096,2.384-2.104,2.277-4.299,0.089c-0.719-0.715-1.375-2.467-2.904-0.911
			c-0.36,0.366-0.53,0.064-0.782-0.162c-1.396-1.246-3.077-0.979-4.403-0.233c-2.281,1.283-4.566,0.777-6.853,0.509
			c-0.861-0.101-1.47-0.253-1.694,0.737c-0.233,1.03-0.667,0.617-1.162,0.225c-0.619-0.489-1.398-0.406-2.117-0.559
			c-7.745-1.647-15.632,0.364-23.392-0.923c-0.797-0.132-1.719-0.058-2.111,0.893c-0.476,1.153,0.13,2.065,0.766,2.959
			c0.547,0.77,1.195,1.088,2.12,0.661c0.444-0.205,0.921-0.419,1.396-0.452c0.696-0.05,1.808-0.374,1.927,0.5
			c0.144,1.063-1.013,0.694-1.665,0.813c-0.686,0.126-1.978-0.058-1.757,0.818c0.604,2.393-1.066,1.657-2.054,1.66
			c-8.739,0.03-17.438-1.395-26.132-1.312c-12.511,0.118-24.924-1.787-37.486-0.899c-8.931,0.631-17.97,0.505-26.955-0.16
			c-1.798-0.134-3.704-0.257-5.419,0.176c-4.415,1.114-8.868,0.524-13.269,0.459c-7.342-0.109-14.696-0.006-21.958,0.729
			c-4.51,0.457-9.025,0.421-13.514,0.685c-5.988,0.351-11.961,1.232-17.986,1.056c-0.868-0.025-1.986,0.184-2.16,1.272
			c-0.163,1.026,0.328,2.077,1.385,2.363c1.717,0.466,1.366,1.223,0.602,2.278c-0.613,0.847-1.114,1.776-1.644,2.633
			c-0.231-0.077-0.329-0.08-0.379-0.13c-1.12-1.138-0.709-3.838-2.631-3.756c-1.875,0.08-1.351,2.479-1.923,3.845
			c-0.995,2.371-3.431,2.406-5.377,2.888c-1.421,0.352-0.91-1.577-1.476-2.373c-0.915-1.289-1.724-1.986-3.059-0.457
			c-0.998,1.142-2.292,1.197-3.619,0.562c-1.485-0.712-2.991-1.393-4.426-2.196c-0.811-0.453-1.573-0.649-2.288-0.047
			c-1.697,1.43-3.547,2.688-5.192,4.143c-1.251,1.106-2.083,3.098-1.537,4.683c0.509,1.479,2.464,0.893,3.814,0.913
			c8.162,0.115,16.33,0.045,24.486,0.308c6.094,0.197,12.191,0.427,18.239-0.302c5.47-0.66,10.871-1.484,16.437-1.531
			c9.829-0.084,19.588,1.234,29.398,1.073c6.75-0.11,13.492,0.688,20.243,0.06c0.974-0.091,1.989-0.009,2.958,0.15
			c4.435,0.731,8.687,0.004,12.909-1.355c1.773-0.571,2.333-1.554,1.996-3.33c-0.454-2.387-0.236-4.694,0.661-7.025
			c1.082-2.815,0.305-3.807-2.743-3.845c-5.104-0.064-10.199,0.12-15.301,0.368c-2.714,0.131-4.343,1.124-5.298,3.542
			c-0.547,1.387-1.144,2.77-2.442,3.645c-0.89,0.6-1.986,1.408-2.931,0.978c-1.047-0.478,0.146-1.575,0.013-2.424
			c-0.075-0.478,0.007-0.99,0.079-1.478c0.44-2.97-0.717-3.937-3.618-2.788c-1.794,0.71-3.46,1.745-5.204,2.643
			c-0.202-2.529-1.103-3.067-3.82-2.395c-1.565,0.389-3.047,1.462-4.763,0.772c-2.175-0.875-4.189-0.375-6.206,0.526
			c-1.193,0.533-2.533,2.205-3.379-0.521c-0.205-0.663-1.461-0.712-2.273-0.639c-1.744,0.156-3.419,0.582-4.69,1.932
			c-0.36,0.382-0.726,1.251-1.255,0.322c-1.647-2.889-3.36-1.756-5.209-0.261c-0.578,0.467-1.455,1.298-2.074,0.17
			c-1.122-2.045-2.632-1.594-4.22-0.866c-0.937,0.429-1.746,0.555-2.81,0.171c-2.264-0.817-4.199-0.333-5.375,2.034
			c-0.513,1.031-1.132,2.014-1.76,2.983c-0.327,0.505-0.546,1.46-1.383,1.044c-0.681-0.338-0.39-1.171-0.267-1.806
			c0.292-1.507,1.598-2.816,1.014-4.477c-0.438-1.246,0.181-1.423,1.161-1.477c1.561-0.085,3.129-0.141,4.678-0.333
			c4.907-0.61,9.866-1.48,14.758-0.99c5.571,0.557,11.036,0.157,16.492-0.532c7.456-0.941,14.952-0.687,22.42-0.965
			c3.825-0.142,7.684,0.173,11.563-0.024c3.687-0.187,7.393-1.125,11.083-0.419c2.164,0.414,4.234,0.223,6.377,0.024
			c5.078-0.469,10.114-1.538,15.256-1.165c6.483,0.47,12.959,1.2,19.45,1.349c7.578,0.175,15.135,0.47,22.704,0.956
			c11.828,0.761,23.693,0.93,35.524,1.662c4.531,0.28,9.055,0.306,13.581,0.442c1.288,0.04,3.059,1.227,3.295-1.408
			c0.047-0.532,0.821-0.307,1.302-0.297c7.553,0.15,15.09,0.799,22.601,1.406c9.271,0.75,18.575,0.514,27.835,1.596
			c7.18,0.838,14.463,0.795,21.698,1.145c4.525,0.219,9.05,0.465,13.577,0.652c11.432,0.473,22.828,1.515,34.268,1.942
			c13.647,0.51,27.276,1.528,40.918,2.261c8.225,0.441,16.459,0.723,24.686,1.143c4.109,0.209,8.256,0.305,12.305,0.951
			c2.594,0.414,5.027,1.761,7.762,1.823c1.23,0.028,2.738,0.592,3.597-0.25c1.607-1.576,3.286-1.144,5.054-0.828
			c1.07,0.191,2.131,0.268,3.176-0.109c1.472-0.529,1.75-1.857,2.068-3.146c0.24-0.974-0.229-1.807-1.08-1.943
			c-3.303-0.525-5.533-4.73-9.543-2.787c-0.001,0.001-0.129-0.263-0.422-0.853c4.24-0.715,7.973-3.108,12.391-2.464
			c2.012,0.293,3.941,0.095,5.871-0.419c0.543-0.144,1.25-0.19,1.229-0.961c-0.021-0.75-0.707-0.892-1.266-0.916
			c-3.373-0.148-6.864-0.853-10.1-0.236c-6.961,1.325-14.178-0.23-20.996,2.144c-0.586,0.204-1.436-0.24-1.803,0.466
			c-0.396,0.762,0.402,1.153,0.801,1.631c0.43,0.517,0.959,1.001,0.433,1.719c-0.472,0.642-1.123,1.065-1.925,0.729
			c-0.949-0.396-2.291-0.301-2.66-1.533C938.34,702.417,939.155,701.382,940.447,700.262z M645.486,672.116
			c0.429,0.84-0.203,1.09-0.393,1.494c-1.171,2.484,0.022,4.471,2.784,4.541c0.82,0.021,1.643-0.094,2.466-0.13
			c3.529-0.15,7.07-2.284,10.589,0.062c0.121,0.081,0.323,0.039,0.487,0.053c3.94,0.36,7.882,0.717,11.842,0.515
			c1.455-0.074,3.15,0.583,4.3-0.478c0.965-0.89,0.048-2.351,0.152-3.562c0.101-1.193,0.521-1.861,1.784-1.849
			c1.332,0.012,1.665,0.845,1.646,1.967c-0.01,0.577-0.004,1.162-0.102,1.727c-0.225,1.3,0.502,1.933,1.6,2.01
			c3.529,0.248,7.067,0.549,10.597,0.49c1.739-0.028,3.416-0.754,2.846-3.264c-0.301-1.324,0.229-2.25,1.865-2.105
			c0.596,0.053,1.192-0.249,1.195-0.971c0.003-0.78-0.675-0.822-1.243-0.911c-2.2-0.343-4.403-0.776-6.637-0.453
			c-1.634,0.236-3.236,0.423-4.912,0.291c-4.745-0.375-9.502-0.602-14.255-0.88c-4.309-0.252-8.59,1.125-12.723,0.99
			c-4.787-0.156-9.616-1.092-14.486-1.03c-1.175,0.016-1.488-0.678-1.516-1.771c-0.027-1.023,0.246-1.54,1.324-1.619
			c0.817-0.061,1.624-0.275,2.432-0.436c0.479-0.095,1.049-0.118,1.243-0.66c0.245-0.683-0.3-1.08-0.737-1.422
			c-1.628-1.276-3.354-2.332-5.372-2.975c-4.728-1.507-9.687-1.99-14.433-3.399c-1.232-0.365-2.4-0.739-2.505-2.309
			c-0.416-6.251-0.75-12.504-0.554-18.774c0.039-1.251,0.559-2.02,1.813-2.266c0.728-0.143,1.45-0.314,2.169-0.498
			c0.583-0.149,1.202-0.411,1.092-1.114c-0.119-0.755-0.8-0.71-1.389-0.611c-0.976,0.165-1.949,0.344-2.918,0.543
			c-1.302,0.267-2.169-0.157-2.208-1.556c-0.125-4.505-0.819-9.152,2.87-12.806c0.885-0.877,0.98-1.919-0.123-2.47
			c-2.864-1.432-3.611-3.726-3.387-6.708c0.103-1.353-0.742-2.473-2.204-2.497c-1.396-0.022-1.915,1.146-2.123,2.347
			c-0.38,2.192-0.778,4.388-0.624,6.633c0.23,3.347-0.466,6.497-1.531,9.684c-0.827,2.475-1.598,3.982-4.52,2.788
			c-0.87-0.356-1.958-0.154-2.939-0.273c-0.811-0.099-1.479,0.005-1.866,0.818c-0.443,0.932-0.032,1.573,0.701,2.119
			c1.321,0.984,2.654,1.955,3.948,2.973c0.789,0.621,2.18,0.883,1.851,2.295c-0.288,1.231-1.494,1.393-2.516,1.718
			c-0.714,0.228-1.941-0.151-1.923,1.035c0.015,0.971,1.152,0.695,1.8,0.929c2.141,0.774,2.722,2.309,2.55,4.478
			c-0.181,2.272-1.89,2.185-3.366,2.495c-1.528,0.322-3.103,0.448-4.607,0.85c-0.874,0.233-1.668,0.909-1.655,1.94
			c0.011,0.887,0.882,1.154,1.559,1.391c1.551,0.543,3.152,0.946,4.699,1.498c0.601,0.214,1.26,0.614,1.13,1.429
			c-0.137,0.865-0.892,0.839-1.549,0.88c-8.049,0.505-16.094,1.256-24.15,1.425c-5.867,0.124-11.669,0.829-17.507,1.105
			c-4.169,0.198-7.474,1.45-9.394,5.464c-0.681,1.423-1.966,2.419-3.604,2.81c-0.557,0.133-1.224,0.317-1.135,1.067
			c0.089,0.752,0.804,0.729,1.36,0.786c1.853,0.188,3.27,1.107,4.281,2.618c0.886,1.322,1.139,2.387-1.043,2.688
			c-1.908,0.264-1.894,0.397-1.654,2.196c0.07,0.531-0.401,0.646-0.658,0.935c-3.089,3.467-3.013,5.989,0.267,8.689
			c-0.391,0.661-1.138,0.556-1.721,0.788c-0.52,0.207-1.303,0.222-1.234,0.961c0.067,0.728,0.828,0.69,1.388,0.723
			c1.612,0.097,3.132,0.597,4.379,1.541c1.482,1.121,3.054,1.355,4.841,1.465c1.889,0.117,3.304-1.421,4.638-1.486
			c4.41-0.214,8.939-0.021,13.275,0.796c6.131,1.155,12.089,0.49,17.776-1.37c2.806-0.917,4.906-2.345,7.474,0.179
			c0.579,0.569,2.413,0.918,2.086-1.004c-0.286-1.681,0.316-2.087,1.748-2.116c0.559-0.011,0.978-0.224,0.723-0.932
			c-0.414-1.155,0.482-0.984,1.086-1.012c8.2-0.378,16.344-2.077,24.608-1.026c1.054,0.134,2.144,0.038,3.213-0.019
			c0.752-0.04,1.643-0.18,1.601-1.148c-0.038-0.854-0.923-0.74-1.551-0.874c-2.659-0.564-5.317-1.137-7.969-1.739
			c-0.456-0.104-1.083-0.281-0.95-0.906c0.138-0.647,0.771-0.509,1.239-0.408c1.275,0.275,2.657,0.31,3.5-0.666
			C638.868,674.006,642.943,674.662,645.486,672.116z M829.107,713.318c1.609,1.812-1.639,5.498,2.902,5.981
			c4.225,0.45,2.66-3.096,3.671-5.134c0.827,1.13,0.919,2.033,0.882,2.925c-0.069,1.683,0.577,2.459,2.346,2.213
			c2.643-0.368,5.244,0.174,7.828,0.584c1.736,0.277,2.693-0.064,2.854-1.969c0.107-1.288,0.612-2.479,1.391-3.877
			c0.955,1.79,1.726,3.31,2.57,4.786c0.451,0.785,1.046,1.752,2.093,1.377c3.956-1.418,7.733-0.287,11.642,0.331
			c2.939,0.464,6.066,0.305,9.021,0.337c5.183,0.056,10.264,1.269,15.48,0.865c3.183-0.247,6.467,0.659,9.656,0.749
			c3.848,0.109,7.701-0.445,11.586,0.201c4.792,0.797,9.658-1.041,14.514,0.385c1.672,0.49,2.17-1.235,2.079-2.635
			c-0.118-1.826,0.915-4.127-1.766-5.079c-0.148-0.053-0.386-0.097-0.481-0.021c-2.015,1.621-3.83,0.876-5.659-0.384
			c-0.269-0.185-0.837-0.095-1.198,0.044c-1.639,0.624-3.228,0.151-4.867-0.01c-4.9-0.481-9.815-0.827-14.729-1.154
			c-1.864-0.125-3.405,1.1-5.733,0.037c-1.933-0.881-4.949-0.612-7.496-0.606c-6.42,0.014-12.816-0.41-19.211-0.937
			c-1.635-0.134-3.394-0.349-4.176,2.029c-0.443-1.442-0.972-2.588-2.496-2.494c-4.525,0.281-9.023-0.237-13.533-0.387
			c-5.309-0.176-10.603-0.132-15.924-0.626c-3.402-0.316-6.826-1.068-10.436-0.591c-2.283,0.302-5.014,0.841-7.191,0.211
			c-3.666-1.059-7.376-0.344-11-1.12c-1.445-0.311-3.176-0.431-4.254,1.201c-0.186,0.282-0.598,0.367-0.885,0.133
			c-2.838-2.309-6.43-1.875-9.659-2.327c-4.636-0.648-6.118,0.128-4.991,4.374c0.146,0.548,0.182,1.152,0.136,1.72
			c-0.156,1.94,0.614,2.648,2.631,2.958c2.858,0.439,4.196-0.427,4.264-3.496c0.875,1.337,0.021,3.621,2.313,3.686
			c2.794,0.079,5.172-0.545,4.95-4.664c1.285,1.935-0.156,4.581,2.261,4.672c2.107,0.078,4.764,1.909,6.404-1.236
			c1.482,2.358,3.681,1.955,5.801,1.736c0.635-0.066,1.219-0.577,1.904-0.277c3.171,1.387,6.604,0.189,9.834,1.006
			c0.476,0.12,0.984,0.095,1.467,0.194c1.777,0.363,2.729-0.103,2.436-2.151C828.164,715.68,828.34,714.487,829.107,713.318z
			 M773.854,675.661c0.563,0,1.128,0.021,1.689-0.004c1.9-0.088,3.487-0.229,2.729-3.013c-0.321-1.184-0.017-2.641-0.062-3.989
			c-0.111-3.32,0.057-3.479-3.192-3.358c-6.245,0.229-12.484,0.618-18.728,0.921c-1.539,0.075-2.025,0.922-2.256,2.364
			c-0.252,1.581-0.453,3.557-1.471,4.543c-1.815,1.762-0.947,2.685,0.523,3.941c-1.513,0.325-2.258,1.484-3.215,2.374
			c-0.626,0.583-1.141,1.296-0.854,2.177c0.319,0.985,1.289,0.948,2.088,0.925c2.549-0.075,5.095-0.304,7.644-0.34
			c9.876-0.139,19.746-0.784,29.633-0.089c5.825,0.41,11.626,1.232,17.483,1.173c0.382-0.003,0.766,0.209,1.406,0.396
			c-1.424,1.465-1.725,3.02-0.688,4.773c-0.707,0.033-1.115,0.042-1.521,0.075c-1.369,0.109-3.211-0.044-1.104,2.002
			c0.221,0.214,0.35,0.564,0.432,0.875c0.506,1.942,1.623,1.799,2.949,0.87c1.412-0.991,2.73-2.175,4.65-1.979
			c0.408,0.042,0.9,0.044,0.93-0.514c0.027-0.524-0.457-0.606-0.859-0.692c-1.129-0.24-2.389,0.209-3.711-0.541
			c4.38-1.364,4.38-1.364,3.281-4.621c0.76-0.559,2.521,0.025,2.265-1.633c-0.209-1.356-1.489-1.604-2.699-1.677
			c-0.082-0.005-0.165-0.008-0.247-0.013c-7.132-0.497-14.273-0.898-21.394-1.532c-3.417-0.304-6.923-0.309-10.152-1.804
			C777.678,676.47,775.859,675.968,773.854,675.661z M772.792,653.046c-4.509,0.328-9.033,0.517-13.519,1.039
			c-2.477,0.289-4.939,0.125-7.398,0.316c-0.752,0.059-1.586,0.161-1.668,1.119c-0.08,0.963,0.705,1.2,1.459,1.35
			c1.609,0.321,3.228,0.6,4.834,0.937c1.135,0.237,2.932-0.547,3.244,0.897c0.271,1.26-1.664,0.876-2.447,1.516
			c-0.127,0.104-0.292,0.164-0.408,0.276c-0.732,0.709-2.102,1.132-1.672,2.453c0.391,1.204,1.648,0.855,2.59,0.871
			c4.285,0.074,8.553-0.386,12.826-0.503c11.228-0.304,22.332,1.523,33.505,2.224c1.358,0.085,3.075,0.818,3.87-0.623
			c0.803-1.458-0.891-2.236-1.734-3.168c-1.211-1.337-0.846-2.236,0.802-2.648c1.274-0.319,2.597-0.45,3.881-0.74
			c0.834-0.188,2.099-0.138,2.003-1.359c-0.092-1.165-1.307-1.038-2.18-1.123c-3.682-0.36-7.361-0.802-11.052-1.012
			c-3.708-0.21-7.222-1.647-10.952-1.599c-2.005,0.026-3.9-0.273-5.771-1.083c-2.012-0.871-4.073-1.178-6.137,0.175
			C775.682,653.14,774.21,653.156,772.792,653.046z M794.113,731.607c0.635,1.709,1.1,3.02,1.611,4.314
			c0.315,0.8,0.825,1.482,1.764,1.537c3.035,0.178,6.037,0.824,9.107,0.559c1.375-0.119,2.047-0.729,2.277-2.094
			c0.617-3.678-1.806-6.281-6.005-6.828c-4.892-0.637-9.823-0.004-14.726-0.799c-2.54-0.411-5.244,0.189-7.874,0.337
			c-0.601,0.032-1.194,0.181-1.466,0.756c-0.609,1.297-1.514,1.04-2.451,0.513c-3.201-1.805-6.943-1.07-10.3-2.192
			c-0.538-0.18-1.438,0.004-1.874,0.372c-1.282,1.08-2.58,0.783-3.95,0.391c-3.423-0.98-6.851-1.84-10.457-0.988
			c-1.223,0.287-2.854-0.147-3.171,1.662c-0.319,1.826-0.227,3.495,1.493,4.872c3.849,3.081,8.314,2.611,12.726,2.492
			c1.074-0.028,1.402-0.987,1.504-1.97c0.057-0.545-0.076-1.299,0.659-1.431c0.647-0.116,1.06,0.479,1.288,0.986
			c1.101,2.438,3.277,2.769,5.55,2.903c1.067,0.064,2.143,0.045,3.214,0.032c2.727-0.034,5.922,0.721,6.041-4.095
			c1.611,4.197,4.537,4.498,8.125,4.769C791.862,738.058,792.367,734.575,794.113,731.607z M669.785,680.602
			c-8.497,0-15.504,0.034-22.512-0.02c-2.178-0.017-3.661,0.341-2.849,3.052c0.157,0.522,0.084,1.161-0.038,1.71
			c-0.699,3.145-0.714,3.122,2.49,3.281c0.732,0.037,1.453,0.262,2.181,0.382c2.27,0.376,4.499,1.154,6.833,0.949
			c6.518-0.573,12.963,0.694,19.462,0.753c2.273,0.021,4.336,0.075,6.45-0.899c1.36-0.627,2.799-1.484,4.48-0.872
			c1.089,0.396,1.938,2.1,3.231,1.108c1.154-0.884,0.433-2.479,0.575-3.753c0.044-0.408,0.031-0.825,0.014-1.236
			c-0.065-1.638,0.688-2.417,2.353-2.456c0.735-0.018,1.975,0.253,1.929-0.898c-0.037-0.913-1.202-0.588-1.879-0.665
			C684.452,680.118,676.364,680.891,669.785,680.602z M767.879,712.66c0.125,3.535,1.908,4.409,4.223,4.056
			c2.688-0.411,5.213,0.009,7.784,0.646c1.996,0.495,3.202-0.43,3.267-2.528c0.047-1.552-0.332-3.121-0.24-4.666
			c0.093-1.598-0.621-2.081-2.014-2.054c-5.485,0.105-10.941-0.434-16.41-0.72c-1.59-0.084-3.308-0.607-4.725,0.697
			c-0.394,0.362-0.73,0.11-1.088-0.138c-3.558-2.472-7.492-1.078-11.244-0.895c-1.789,0.087-3.619,2.028-4.994-0.703
			c-0.105-0.209-0.576-0.291-0.89-0.329c-4.225-0.511-6.712,2.539-5.341,6.533c0.846,2.463,1.947,2.996,4.938,2.756
			c2.315-0.186,1.819-1.89,2.013-3.271c0.049-0.341,0.188-0.621,0.615-0.583c0.529,0.244,0.596,0.771,0.695,1.237
			c0.565,2.678,2.331,3.396,4.79,2.933c1.153-0.216,2.288,0.024,3.413,0.007c2.277-0.034,4.709,1.237,6.838-0.62
			c0.477-0.416,0.633,0.147,0.916,0.413C763.209,718.034,766.732,717.108,767.879,712.66z M686.341,706.974
			c-0.253-1.461-0.13-3.12-1.886-3.415c-2.111-0.355-4.342-0.585-6.366,0.107c-1.135,0.389-1.873,0.248-2.922-0.057
			c-1.926-0.559-4.141-1.354-5.404,1.193c-0.84,1.693-1.522,3.466-2.243,5.217c-0.339,0.825-0.295,1.621,0.462,2.239
			c1.93,1.577,7.995,0.288,9.229-2.111c0.723,4.251,3.98,2.821,6.5,3.138c2.393,0.302,2.998-1.218,3.193-3.774
			c0.439,1.045,0.657,1.403,0.74,1.789c0.438,2.025,1.544,2.687,3.598,2.11c2.009-0.564,4.204-0.483,5.946-2.019
			c0.571,2.939,2.682,3.041,7.694,1.708c3.168-0.842,1.421-3.946,1.416-5.995c-0.008-3.336-2.899-2.565-4.843-2.649
			c-3.898-0.169-4.187,0.18-4.701,3.806c-1.409-4.467-1.41-4.343-7.141-4.427C687.287,703.799,686.576,704.876,686.341,706.974z
			 M716.238,710.642c-0.092-0.004-0.185-0.008-0.278-0.012c-0.061-1.229-0.1-2.46-0.187-3.687c-0.07-0.988-0.511-1.666-1.552-1.959
			c-5.821-1.642-8.177,0.542-7.12,6.385c0.403,2.23,1.333,3.097,3.583,2.932c6.224-0.456,12.432,0.192,18.624,0.646
			c5.713,0.418,5.783,0.539,5.399-5.048c-0.327-4.75-1.616-5.442-5.771-3.16c-0.555,0.306-0.877,0.636-1.058,1.238
			c-0.226,0.753-1.082,0.892-1.268,0.302c-0.933-2.973-3.622-2.314-5.577-2.546c-3.294-0.39-4.307-1.327-4.456,3.238
			C716.562,709.532,716.356,710.085,716.238,710.642z M681.639,734.545c1.729,0,3.461,0.028,5.19-0.008
			c1.964-0.042,2.953-0.865,2.314-2.985c-0.405-1.339-0.742-2.7-1.066-4.062c-0.345-1.45-1.156-2.096-2.702-2.386
			c-4.253-0.795-8.521,0.272-12.782-0.354c-2.029-0.297-3.188,1.465-2.585,3.684c0.855,3.139,2.617,6.239,6.935,6.115
			C678.506,734.504,680.073,734.541,681.639,734.545z M630.779,723.434c2.332,3.022,2.323,2.99-0.677,3.812
			c-1.718,0.471-1.779,2.024-1.876,3.396c-0.11,1.556,1.001,2.29,2.332,2.323c5.003,0.127,10.008,0.565,15.015,0.094
			c0.959-0.09,1.682-0.385,1.96-1.501c1.401-5.614,0.578-6.968-4.901-7.864c-0.406-0.066-0.804-0.246-1.207-0.248
			C638.046,723.425,634.667,723.434,630.779,723.434z M699.873,735.065c0-0.012,0-0.023,0-0.036c1.316,0,2.636,0.065,3.947-0.011
			c6.198-0.36,7.363-2.568,4.251-7.966c-0.343-0.596-0.727-1.148-1.471-1.163c-4.833-0.097-9.657-0.657-14.501-0.25
			c-1.429,0.12-1.981,0.888-2.063,2.247c-0.198,3.304,3.314,7.142,6.63,7.177C697.735,735.075,698.804,735.065,699.873,735.065z
			 M718.004,726.154c-0.907,0-1.815,0.004-2.722,0c-4.967-0.023-5.646,0.785-4.733,5.652c0.106,0.567,0.256,1.127,0.365,1.693
			c0.181,0.939,0.75,1.386,1.691,1.508c4.508,0.586,9.036,0.643,13.569,0.529c0.986-0.025,1.773-0.347,1.862-1.535
			c0.153-2.077-0.249-4.107-0.511-6.145c-0.132-1.017-1.049-1.102-1.883-1.266C723.113,726.092,720.56,726.13,718.004,726.154z
			 M657.946,724.188c-2.155,0-3.882-0.02-5.607,0.01c-0.818,0.014-1.648,0.051-2.142,0.915c-1.334,2.341,1.41,8.261,4.095,8.375
			c3.908,0.167,7.866,0.751,11.716-0.712c1.252-0.477,2.929-0.616,2.467-2.365c-0.541-2.049,0.149-4.928-2.868-5.694
			C662.96,724.043,660.23,724.116,657.946,724.188z M738.911,736.064c6.71-0.043,5.481,0.473,6.701-5.146
			c0.546-2.514-0.435-3.398-2.708-3.836c-3.759-0.722-7.541-0.07-11.303-0.398c-1.229-0.106-2.752,0.031-2.768,1.713
			c-0.018,1.916-1.111,4.346,1.437,5.489C733.188,735.194,736.135,736.631,738.911,736.064z M942.061,721.225
			c1.114,2.438,1.116,2.4,3.432,2.51c1.226,0.057,2.44,0.281,3.664,0.402c2.826,0.279,4.137-0.881,4.258-3.746
			c0.106-2.496-1.311-4.094-3.743-4.141c-3.608-0.068-7.218,0.144-10.817-0.461c-1.281-0.215-2.917-0.446-3.209,1.667
			c-0.36,2.591,0.732,5.336,2.274,5.848C939.801,723.929,941.111,723.359,942.061,721.225z M846.415,691.285
			c2.405-0.33,2.536-1.826,2.353-3.635c-0.12-1.178-0.621-1.966-1.748-1.999c-2.461-0.07-4.941-0.118-7.387,0.115
			c-1.371,0.131-2.471,1.225-2.529,2.662c-0.068,1.623,1.418,1.758,2.613,2.053c0.438,0.108,1.109-0.217,1.287,0.323
			c0.611,1.867,0.573,1.919,1.969,1.878c4.771-0.138,9.51,0.309,14.248,0.772c3.795,0.371,7.549-0.295,11.321-0.486
			c0.491-0.025,1.104-0.115,1.098-0.73c-0.006-0.609-0.618-0.672-1.11-0.736c-2.691-0.347-5.396-0.874-8.104-0.433
			C855.834,691.819,851.235,691.263,846.415,691.285z M967.334,717.243c-3.484-0.163-3.473-0.165-3.068,3.277
			c0.086,0.735,0.062,1.483,0.086,2.224c0.039,1.178,0.344,2.215,1.762,2.201c1.414-0.013,1.609-1.062,1.762-2.225
			c0.148-1.125-0.632-3.147,0.74-3.151c1.259-0.004,1.008,2.112,1.148,3.382c0.037,0.327,0.018,0.664,0.084,0.984
			c0.16,0.77,0.656,1.342,1.369,0.775c0.958-0.762,1.549-0.161,2.398,0.143c1.562,0.559,3.341,0.783,4.765-0.211
			c1.472-1.027-0.233-2.205-0.236-3.346c-0.001-0.482-0.278-0.961-0.297-1.448c-0.059-1.578-0.939-2.112-2.405-2.166
			C972.737,717.585,970.036,717.397,967.334,717.243z M797.643,673.769c0.002-2.134-0.898-3.964-1.955-5.75
			c-0.833-1.407-1.891-2.324-3.635-1.746c-1.789,0.593-1.982,2.146-1.814,3.637c0.213,1.889,0.97,3.644,1.942,5.298
			c0.784,1.333,1.626,2.685,3.419,2.167C797.303,676.884,797.561,675.325,797.643,673.769z M990.336,730.6
			c1.09-0.049,2.564,0.142,2.985-1.582c0.747-3.053-3.286-7.6-6.359-7.227c-0.725,0.089-1.183,0.525-1.491,1.149
			C984.23,725.455,987.349,730.588,990.336,730.6z M686.763,696.106c1.496-0.069,2.972-0.089,4.438-0.226
			c0.67-0.063,1.277-0.48,1.427-1.191c0.166-0.783-0.459-1.21-1.028-1.511c-0.565-0.299-1.207-0.559-1.834-0.614
			c-2.365-0.207-4.747,0.047-7.117-0.361c-1.093-0.188-1.961,0.525-2.102,1.627c-0.132,1.038,0.645,1.741,1.585,1.891
			C683.664,695.962,685.228,695.989,686.763,696.106z M778.871,689.583c5.282,0.236,10.502,0.813,15.743,0.897
			c0.939,0.015,1.909-0.351,2.067-1.409c0.174-1.17-1.059-1.034-1.693-1.438c-0.789-0.504-1.699-0.764-2.604-0.594
			C787.897,687.88,783.445,688.916,778.871,689.583z M703.392,685.016c-0.877,0-1.208-0.017-1.537,0.003
			c-1.06,0.063-2.378-0.083-2.269,1.526c0.101,1.478,1.308,1.108,2.281,1.112c1.975,0.007,3.954,0.019,5.924,0.15
			c0.909,0.061,1.797,0.266,2.665-0.145c0.529-0.25,1.091-0.534,1.046-1.227c-0.05-0.761-0.7-0.897-1.271-0.876
			C707.745,685.651,705.304,685.238,703.392,685.016z M954.428,720.335c-0.017,0-0.031,0.001-0.048,0.002
			c0.047,0.819,0.049,1.645,0.153,2.457c0.1,0.76,0.4,1.476,1.257,1.642c0.954,0.186,1.72-0.361,1.95-1.16
			c0.475-1.639,0.857-3.348,0.465-5.069c-0.259-1.141-1.128-1.524-2.252-1.445c-1.173,0.083-1.498,0.841-1.523,1.849
			C954.416,719.185,954.428,719.76,954.428,720.335z"/>
		<path fill-rule="evenodd" clip-rule="evenodd" fill="#00A79D" d="M324.683,744.971c0.186-0.625,0.375-1.25,0.556-1.877
			c0.457-1.577,0.908-2.434,2.616-0.834c1.458,1.363,3.391,0.847,5.122,0.16c1.21-0.48,2.37-1.211,3.852-0.553
			c-0.098,0.23-0.137,0.459-0.269,0.606c-0.441,0.497-1.808,0.299-1.407,1.312c0.344,0.867,1.31,0.23,1.989,0.082
			c3.453-0.757,6.888-0.439,10.307,0.195c0.53,0.098,1.218,0.383,1.465,0.8c1.376,2.323,3.386,1.83,5.614,1.81
			c5.023-0.045,10.154-1.73,15.083,0.716c1.29,0.64,2.707,0.479,4.112,0.083c3.49-0.98,6.974-2.029,10.685-1.043
			c0.845,0.225,1.852,0.192,2.704-0.03c3.313-0.867,6.4-0.244,9.66,0.615c3.006,0.791,6.173-0.483,9.279-0.739
			c5.349-0.44,10.693-0.551,16.041-0.014c0.246,0.024,0.496,0.115,0.735,0.089c7.544-0.814,15.133,0.718,22.669-0.442
			c0.164-0.025,0.344-0.016,0.486-0.085c5.187-2.521,10.47-1.239,15.695-0.269c2.19,0.408,4.403,0.506,6.33-0.28
			c3.125-1.272,6.179-0.857,9.206-0.264c4.155,0.813,8.213-0.173,12.308-0.278c2.299-0.061,4.562-0.217,6.88-0.035
			c2.079,0.164,2.369,0.99,1.804,2.678c-0.171,0.512-0.524,1.023-0.096,1.811c1.852-1.062,2.09-2.917,2.127-4.506
			c0.104-4.475,1.065-8.775,1.987-13.114c0.509-2.397-0.412-4.726-1.085-7.022c-0.789-2.688-0.407-3.331,2.399-3.311
			c3.659,0.027,7.115-0.762,10.668-1.584c4.902-1.135,10-0.62,14.986,0.233c0.98,0.168,1.949,0.357,2.944,0.161
			c7.379-1.457,14.746-1.048,22.126,0.046c1.619,0.24,3.301,0.224,4.939,0.108c2.737-0.193,5.157,0.686,7.631,1.69
			c2.524,1.026,3.068,2.691,2.863,5.265c-0.477,5.958-3.446,10.778-6.716,15.432c-1.856,2.642-3.765,5.339-6.577,7.151
			c8.323,1.045,16.654,0.752,24.967,0.645c13.689-0.175,27.372,0.36,41.044,0.688c11.874,0.283,23.741,0.096,35.607,0.324
			c1.072,0.021,2.175-0.158,3.212,0.031c3.856,0.705,7.3,0.296,10.05-2.902c0.62-0.721,1.722-0.941,2.736-1.02
			c7.722-0.6,15.287-2.316,22.96-3.234c3.799-0.453,7.532,0.2,11.085,1.766c1.587,0.699,1.808,1.932,1.81,3.428
			c0.001,1.172-0.331,2.6,1.506,2.88c1.761,0.268,2.536-0.646,2.986-2.202c1.831-6.325,9.24-6.723,13.394-3.239
			c0.695,0.583,0.81,1.378,0.904,2.218c0.097,0.848-0.288,1.793,0.607,2.759c0.546-1.401,0.354-2.703,0.316-3.947
			c-0.062-2.108,0.812-2.864,2.955-2.923c3.364-0.092,6.715,0.611,10.086,0.018c1.699-0.299,2.859,0.311,2.971,2.323
			c0.091,1.623,0.424,3.231,0.652,4.863c0.5-0.165,0.322-0.546,0.354-0.825c0.531-4.703,1.257-5.463,6.184-5.843
			c2.296-0.177,4.616-0.055,6.925-0.062c1.714-0.006,2.55,0.836,2.627,2.569c0.071,1.618-0.278,3.295,0.606,5.129
			c0.93-1.33,0.398-2.523,0.168-3.621c-0.465-2.231,0.502-3.407,2.626-3.506c3.369-0.155,6.754-0.396,10.103,0.363
			c2.771,0.626,3.094,1.108,2.371,3.941c-0.26,1.016-0.555,2.021-0.85,3.09c1.586,0.121,2.14-0.558,2.253-1.988
			c0.482-6.08,0.513-6.082,6.415-4.912c1.177,0.234,2.307-0.069,3.412-0.338c1.605-0.391,2.496,0.19,3.029,1.693
			c0.631,1.781,1.368,3.524,2.502,5.311c0-1.402,0.038-2.806-0.01-4.206c-0.06-1.748,0.686-2.599,2.484-2.562
			c2.805,0.059,5.617-0.081,8.412,0.1c3.068,0.199,3.459,0.779,3.525,3.836c0.022,1.047-0.246,2.143,0.551,3.496
			c0.636-1.463,0.416-2.747,0.409-3.958c-0.012-2.03,0.804-3.064,2.937-3.04c3.32,0.037,6.6-0.517,9.43,2.313
			c1.386,1.386,1.389,2.945,1.875,4.497c0.211-0.02,0.422-0.037,0.633-0.057c0-1.512,0-3.022,0-4.533
			c0-1.408,0.688-2.062,2.111-2.167c2.99-0.222,5.938,0.252,8.859,0.647c2.145,0.29,1.953,2.581,2.521,4.135
			c0.264,0.725-0.174,1.629,0.689,2.645c0.444-2.09,0.021-3.979,0.777-5.695c0.309-0.699,0.414-1.335,1.288-1.597
			c5.095-1.524,10.313,1.37,11.741,6.548c0.035,0.127,0.206,0.218,0.705,0.717c0-1.788-0.031-3.212,0.007-4.634
			c0.052-1.915,0.948-2.606,2.712-1.644c1.306,0.713,2.566,0.856,4.031,0.477c4.152-1.074,4.518-0.843,6.047,3.109
			c0.284,0.734,0.554,1.473,0.992,2.644c0.055-0.955-0.01-1.47,0.128-1.921c0.462-1.515-0.894-3.785,0.947-4.515
			c2.179-0.863,4.862-0.989,6.989,0.12c2.318,1.208,4.79,2.639,5.32,6.303c0.702-1.638,0.496-2.785,0.487-3.872
			c-0.017-1.832,0.921-2.616,2.616-2.418c2.625,0.307,5.25,0.453,7.889,0.486c1.286,0.018,1.963,0.786,1.998,2.05
			c0.039,1.377,0.01,2.756,0.01,4.318c3.055-6.842,3.063-6.932,9.066-6.352c4.033,0.389,2.918,4.33,4.625,7.214
			c0-2.085,0.017-3.587-0.006-5.088c-0.015-0.88,0.073-1.772,1.072-1.972c2.291-0.451,4.85-0.625,6.734,0.533
			c1.984,1.217,4.131,2.847,4.414,5.789c1.041-1.057,0.606-2.153,0.418-3.215c-0.333-1.865,0.35-2.798,2.339-2.816
			c2.816-0.025,5.624-0.104,8.24,1.178c1.032,0.506,1.95,0.392,3.057,0.043c4.267-1.342,7.728-0.377,10.725,2.766
			c0.749-2.6,2.58-4.047,5.292-3.491c3.523,0.725,7.024,0.692,10.551,0.485c1.998-0.117,3.398,0.553,3.984,2.512
			c0.953,3.183,3.295,3.91,6.293,3.95c7.085,0.095,14.18-0.391,21.256,0.427c2.477,0.287,3.05-0.562,2.528-3.092
			c-0.101-0.482-0.231-0.967-0.253-1.453c-0.285-6.076-0.166-6.369,5.979-6.723c5.18-0.297,10.357,0.008,15.549,0.512
			c5.082,0.495,10.229,1.777,15.362-0.243c1.91-0.752,3.804,0.735,5.731,1.074c4.07,0.714,8.191,1.343,12.242,0.916
			c6.016-0.634,11.761,0.931,17.635,1.367c2.789,0.207,5.561,0.46,8.372,0.329c5.677-0.266,11.38,0.32,17.045-0.5
			c1.599-0.23,3.06,0.586,4.62,0.734c4.242,0.403,8.312-1.016,12.514-1.117c2.295-0.056,4.584-0.428,6.875-0.657
			c0,116.248-0.004,232.495,0.041,348.743c0,1.749-0.225,2.34-2.209,2.339c-262.444-0.057-524.888-0.057-787.332,0
			c-1.987,0.001-2.208-0.593-2.208-2.34C324.687,979.444,324.683,862.207,324.683,744.971z"/>
		<path fill-rule="evenodd" clip-rule="evenodd" fill="#00A79D" d="M940.447,700.262c-1.292,1.12-2.107,2.155-1.662,3.642
			c0.369,1.232,1.711,1.137,2.66,1.533c0.802,0.335,1.453-0.088,1.925-0.729c0.526-0.717-0.003-1.202-0.433-1.719
			c-0.398-0.478-1.196-0.87-0.801-1.631c0.367-0.706,1.217-0.262,1.803-0.466c6.818-2.374,14.035-0.818,20.996-2.144
			c3.235-0.616,6.727,0.088,10.1,0.236c0.559,0.024,1.244,0.167,1.266,0.916c0.021,0.771-0.686,0.817-1.229,0.961
			c-1.93,0.514-3.859,0.713-5.871,0.419c-4.418-0.645-8.15,1.749-12.391,2.464c0.293,0.59,0.421,0.854,0.422,0.853
			c4.01-1.944,6.24,2.262,9.543,2.787c0.852,0.136,1.32,0.969,1.08,1.943c-0.318,1.289-0.597,2.617-2.068,3.146
			c-1.045,0.376-2.105,0.3-3.176,0.109c-1.768-0.315-3.446-0.748-5.054,0.828c-0.858,0.842-2.366,0.278-3.597,0.25
			c-2.734-0.062-5.168-1.409-7.762-1.823c-4.049-0.646-8.195-0.741-12.305-0.951c-8.227-0.42-16.461-0.702-24.686-1.143
			c-13.642-0.732-27.271-1.751-40.918-2.261c-11.439-0.428-22.836-1.469-34.268-1.942c-4.527-0.187-9.052-0.434-13.577-0.652
			c-7.235-0.35-14.519-0.307-21.698-1.145c-9.26-1.082-18.564-0.845-27.835-1.596c-7.511-0.607-15.048-1.256-22.601-1.406
			c-0.48-0.009-1.255-0.235-1.302,0.297c-0.236,2.635-2.007,1.447-3.295,1.408c-4.526-0.137-9.05-0.162-13.581-0.442
			c-11.831-0.732-23.696-0.9-35.524-1.662c-7.568-0.486-15.125-0.781-22.704-0.956c-6.491-0.149-12.967-0.879-19.45-1.349
			c-5.142-0.373-10.179,0.696-15.256,1.165c-2.143,0.199-4.213,0.39-6.377-0.024c-3.69-0.706-7.396,0.232-11.083,0.419
			c-3.879,0.197-7.739-0.118-11.563,0.024c-7.468,0.278-14.964,0.023-22.42,0.965c-5.457,0.689-10.921,1.089-16.492,0.532
			c-4.893-0.49-9.852,0.38-14.758,0.99c-1.549,0.193-3.117,0.249-4.678,0.333c-0.98,0.054-1.599,0.231-1.161,1.477
			c0.583,1.661-0.723,2.97-1.014,4.477c-0.123,0.635-0.414,1.468,0.267,1.806c0.837,0.416,1.056-0.54,1.383-1.044
			c0.627-0.969,1.247-1.952,1.76-2.983c1.176-2.367,3.112-2.851,5.375-2.034c1.063,0.384,1.873,0.258,2.81-0.171
			c1.588-0.729,3.098-1.18,4.22,0.866c0.619,1.128,1.496,0.297,2.074-0.17c1.849-1.495,3.562-2.628,5.209,0.261
			c0.53,0.929,0.896,0.06,1.255-0.322c1.271-1.35,2.946-1.775,4.69-1.932c0.812-0.073,2.068-0.023,2.273,0.639
			c0.846,2.727,2.186,1.055,3.379,0.521c2.017-0.901,4.031-1.401,6.206-0.526c1.715,0.69,3.197-0.384,4.763-0.772
			c2.717-0.673,3.618-0.135,3.82,2.395c1.744-0.898,3.41-1.933,5.204-2.643c2.901-1.148,4.059-0.182,3.618,2.788
			c-0.072,0.488-0.154,1-0.079,1.478c0.134,0.849-1.06,1.946-0.013,2.424c0.944,0.431,2.041-0.378,2.931-0.978
			c1.298-0.875,1.896-2.258,2.442-3.645c0.955-2.418,2.584-3.412,5.298-3.542c5.102-0.248,10.197-0.432,15.301-0.368
			c3.047,0.039,3.825,1.03,2.743,3.845c-0.896,2.331-1.114,4.638-0.661,7.025c0.337,1.776-0.222,2.758-1.996,3.33
			c-4.223,1.359-8.474,2.086-12.909,1.355c-0.969-0.159-1.984-0.241-2.958-0.15c-6.751,0.628-13.494-0.17-20.243-0.06
			c-9.811,0.161-19.569-1.158-29.398-1.073c-5.566,0.047-10.967,0.871-16.437,1.531c-6.048,0.729-12.145,0.499-18.239,0.302
			c-8.156-0.263-16.324-0.193-24.486-0.308c-1.35-0.02-3.305,0.567-3.814-0.913c-0.546-1.585,0.286-3.577,1.537-4.683
			c1.646-1.454,3.496-2.712,5.192-4.143c0.714-0.602,1.477-0.406,2.288,0.047c1.435,0.804,2.941,1.484,4.426,2.196
			c1.326,0.635,2.621,0.58,3.619-0.562c1.335-1.529,2.144-0.832,3.059,0.457c0.566,0.796,0.055,2.725,1.476,2.373
			c1.946-0.482,4.382-0.518,5.377-2.888c0.572-1.365,0.048-3.765,1.923-3.845c1.922-0.083,1.512,2.618,2.631,3.756
			c0.05,0.05,0.148,0.053,0.379,0.13c0.529-0.857,1.03-1.786,1.644-2.633c0.764-1.055,1.115-1.812-0.602-2.278
			c-1.058-0.287-1.548-1.337-1.385-2.363c0.174-1.088,1.292-1.297,2.16-1.272c6.025,0.176,11.998-0.705,17.986-1.056
			c4.488-0.264,9.003-0.228,13.514-0.685c7.261-0.734,14.615-0.838,21.958-0.729c4.4,0.065,8.854,0.655,13.269-0.459
			c1.715-0.433,3.621-0.31,5.419-0.176c8.984,0.666,18.023,0.792,26.955,0.16c12.562-0.888,24.976,1.017,37.486,0.899
			c8.694-0.082,17.394,1.343,26.132,1.312c0.987-0.003,2.658,0.732,2.054-1.66c-0.221-0.875,1.072-0.691,1.757-0.818
			c0.651-0.119,1.809,0.25,1.665-0.813c-0.119-0.874-1.231-0.55-1.927-0.5c-0.475,0.033-0.952,0.248-1.396,0.452
			c-0.925,0.427-1.573,0.109-2.12-0.661c-0.636-0.895-1.242-1.807-0.766-2.959c0.392-0.951,1.314-1.025,2.111-0.893
			c7.76,1.288,15.647-0.724,23.392,0.923c0.719,0.153,1.498,0.07,2.117,0.559c0.495,0.392,0.929,0.805,1.162-0.225
			c0.225-0.991,0.833-0.838,1.694-0.737c2.286,0.268,4.571,0.774,6.853-0.509c1.326-0.746,3.008-1.013,4.403,0.233
			c0.252,0.226,0.422,0.527,0.782,0.162c1.529-1.556,2.186,0.196,2.904,0.911c2.195,2.188,2.203,2.294,4.299-0.089
			c1.371-1.559,2.897-2.07,4.849-1.428c0.856,0.282,1.463,0.714,1.409,1.747c-0.059,1.124-0.411,2.466,1.29,2.716
			c1.558,0.228,2.243-0.964,2.72-2.085c0.841-1.975,2.08-2.809,4.258-2.266c0.977,0.244,1.646,0.622,2.038,1.552
			c0.362,0.862,0.826,1.661,2.049,1.239c0.243-0.928-1.579-1.284-0.714-2.272c0.661-0.755,1.564-0.209,2.339-0.064
			c2.731,0.513,5.575,0.677,7.696,2.919c0.939,0.993,1.654,0.362,1.925-0.727c0.46-1.846,1.788-2.271,3.403-2.083
			c3.406,0.396,6.916,0.139,10.093,1.926c3.515,1.978,7.421,2.657,11.393,2.901c1.603,0.098,3.054,0.488,4.495,1.183
			c3.387,1.634,5.65,1.2,8.342-1.427c0.293-0.286,0.623-0.743,0.947-0.753c2.264-0.075,4.271,0.003,4.791-3.191
			c0.203-1.254,2.994-0.283,3.688,1.567c0.53,1.412-0.132,3.24,1.517,4.26c2.167,1.343,4.518,1.903,7.064,1.906
			c5.604,0.007,11.208,0.102,16.777,0.818c1.255,0.161,1.904-0.193,1.764-1.583c-0.091-0.897-0.098-1.81-0.059-2.712
			c0.098-2.288,1.277-2.942,3.232-1.699c1.171,0.745,2.345,1.533,3.228,2.665c1.085,1.391,2.552,2.346,4.057,3.191
			c1.909,1.071,2.896,0.673,3.041-1.442c0.152-2.215,1.215-2.312,2.966-2.001c1.508,0.267,3.068,0.245,4.607,0.337
			c0.889,0.053,1.113-0.541,1.166-1.266c0.117-1.65,1.192-2.04,2.402-1.396c3.02,1.61,6.178,1.45,9.406,1.18
			c1.293-0.109,2.653-0.069,2.744-1.756c0.082-1.525,0.255-3.239-1.628-4.004c-0.745-0.303-1.798-0.321-1.756-1.402
			c0.038-0.988,0.89-1.559,1.696-1.98c1.873-0.98,3.965-1.013,6.004-1.249c2.695-0.311,5.394-0.608,8.088-0.929
			c0.828-0.099,1.531-0.401,2.199-0.991c1.35-1.192,2.294-0.764,2.516,1.115c0.183,1.547-0.134,3.143,0.449,4.655
			c0.396,1.03,0.806,2.172,2.219,1.734c1.183-0.367,1.207-1.39,0.97-2.46c-0.964-4.359-0.776-8.835-1.294-13.224
			c-0.645-5.49-3.162-10.161-8.09-13.208c-0.609-0.377-1.833-0.562-1.244-1.723c0.469-0.924,1.413-0.578,2.227-0.461
			c1.631,0.232,3.262,0.476,4.9,0.641c1.509,0.152,2.066-0.291,2.04-2.095c-0.044-2.955-2.331-5.067-2.438-7.969
			c-0.049-1.372-0.026-2.507,1.168-3.227c1.719-1.036,2.166-2.53,2.066-4.409c-0.072-1.384-0.236-2.96,1.912-3.021
			c2.105-0.059,2.158,1.394,2.084,2.86c-0.112,2.273,0.889,4.358,1.029,6.584c0.057,0.882,0.615,1.306,1.43,1.448
			c0.893,0.156,1.787,0.29,2.681,0.445c0.92,0.16,2.506-0.365,2.565,0.752c0.068,1.319-1.525,0.64-2.378,0.855
			c-1.435,0.362-1.64,1.259-0.654,2.09c1.427,1.205,1.23,2.536,0.88,4.034c-0.434,1.849-0.676,3.675-0.326,5.624
			c0.316,1.763,0.802,3.142,2.623,3.783c1.035,0.364,1.521,1.188,1.563,2.297c0.027,0.728,0.006,1.451,0.551,2.093
			c1.604,1.889,1.501,2.776-0.817,3.663c-2.048,0.782-1.896,1.512-1.171,3.421c2.229,5.865,7.082,4.035,11.11,3.943
			c2.863-0.065,5.752-0.343,8.631-0.297c3.246,0.052,6.422-0.203,9.502-1.291c1.627-0.574,2.922-0.127,4.332,0.918
			c2.227,1.652,3.814,4.143,6.609,5.055c0.553,0.181,1.049,0.587,0.939,1.285c-0.113,0.731-0.752,0.786-1.324,0.869
			c-0.324,0.047-0.658,0.045-0.986,0.076c-0.784,0.071-1.553,0.249-1.551,1.224c0.002,0.999,0.797,1.157,1.572,1.17
			c1.406,0.023,2.737,0.139,2.809,1.983c0.037,0.964-3.166,3.7-3.852,3.186c-2.504-1.885-4.926-0.042-7.326,0.064
			c-2.149,0.094-4.094,0.049-5.939-1.021c-1.458-0.843-2.752-1.051-4.377-0.136c-1.238,0.699-3.099,1.263-2.832-1.504
			c0.086-0.873-0.498-0.956-1.117-0.831c-0.643,0.128-1.297,0.296-1.892,0.568c-6.185,2.83-12.532,3.015-19.071,1.444
			c-1.058-0.254-2.986-1.304-3.355,0.584c-0.295,1.516,1.67,1.488,2.781,1.805c2.977,0.849,5.938,0.785,9.025,0.218
			C930.514,698.356,935.437,699.52,940.447,700.262z"/>
		<path fill-rule="evenodd" clip-rule="evenodd" fill="#00A79D" d="M645.486,672.116c-2.543,2.546-6.619,1.89-9.067,4.72
			c-0.844,0.976-2.226,0.941-3.5,0.666c-0.468-0.102-1.101-0.24-1.239,0.408c-0.133,0.625,0.494,0.802,0.95,0.906
			c2.652,0.603,5.31,1.175,7.969,1.739c0.628,0.134,1.513,0.02,1.551,0.874c0.042,0.968-0.849,1.109-1.601,1.148
			c-1.069,0.057-2.159,0.153-3.213,0.019c-8.264-1.051-16.408,0.648-24.608,1.026c-0.604,0.028-1.5-0.143-1.086,1.012
			c0.254,0.708-0.165,0.921-0.723,0.932c-1.431,0.029-2.034,0.435-1.748,2.116c0.327,1.922-1.507,1.573-2.086,1.004
			c-2.568-2.524-4.668-1.097-7.474-0.179c-5.688,1.86-11.645,2.525-17.776,1.37c-4.336-0.816-8.866-1.01-13.275-0.796
			c-1.333,0.064-2.749,1.603-4.638,1.486c-1.787-0.11-3.359-0.344-4.841-1.465c-1.247-0.943-2.767-1.444-4.379-1.541
			c-0.56-0.033-1.321,0.004-1.388-0.723c-0.069-0.74,0.714-0.754,1.234-0.961c0.583-0.232,1.33-0.127,1.721-0.788
			c-3.28-2.7-3.355-5.222-0.267-8.689c0.257-0.288,0.728-0.404,0.658-0.935c-0.24-1.798-0.253-1.932,1.654-2.196
			c2.182-0.301,1.929-1.366,1.043-2.688c-1.012-1.511-2.428-2.43-4.281-2.618c-0.556-0.056-1.271-0.033-1.36-0.786
			c-0.089-0.75,0.578-0.935,1.135-1.067c1.638-0.391,2.923-1.386,3.604-2.81c1.92-4.015,5.225-5.267,9.394-5.464
			c5.838-0.277,11.641-0.981,17.507-1.105c8.056-0.169,16.101-0.92,24.15-1.425c0.657-0.041,1.412-0.016,1.549-0.88
			c0.13-0.815-0.529-1.215-1.13-1.429c-1.547-0.551-3.148-0.955-4.699-1.498c-0.676-0.237-1.548-0.503-1.559-1.391
			c-0.013-1.031,0.781-1.707,1.655-1.94c1.504-0.401,3.079-0.528,4.607-0.85c1.476-0.31,3.185-0.223,3.366-2.495
			c0.172-2.169-0.409-3.704-2.55-4.478c-0.648-0.234-1.786,0.042-1.8-0.929c-0.018-1.186,1.209-0.808,1.923-1.035
			c1.021-0.326,2.228-0.487,2.516-1.718c0.33-1.412-1.062-1.674-1.851-2.295c-1.294-1.019-2.626-1.989-3.948-2.973
			c-0.733-0.546-1.144-1.187-0.701-2.119c0.387-0.813,1.055-0.917,1.866-0.818c0.98,0.12,2.069-0.083,2.939,0.273
			c2.921,1.194,3.693-0.313,4.52-2.788c1.064-3.188,1.761-6.337,1.531-9.684c-0.154-2.245,0.244-4.44,0.624-6.633
			c0.208-1.2,0.728-2.369,2.123-2.347c1.462,0.023,2.306,1.144,2.204,2.497c-0.225,2.982,0.523,5.276,3.387,6.708
			c1.103,0.551,1.008,1.593,0.123,2.47c-3.689,3.654-2.996,8.301-2.87,12.806c0.039,1.399,0.906,1.823,2.208,1.556
			c0.969-0.199,1.943-0.378,2.918-0.543c0.588-0.099,1.27-0.144,1.389,0.611c0.11,0.703-0.509,0.964-1.092,1.114
			c-0.719,0.184-1.441,0.355-2.169,0.498c-1.254,0.247-1.774,1.015-1.813,2.266c-0.196,6.27,0.139,12.522,0.554,18.774
			c0.105,1.569,1.273,1.943,2.505,2.309c4.746,1.409,9.705,1.892,14.433,3.399c2.017,0.643,3.743,1.699,5.372,2.975
			c0.437,0.342,0.982,0.739,0.737,1.422c-0.194,0.542-0.764,0.565-1.243,0.66c-0.809,0.161-1.615,0.375-2.432,0.436
			c-1.078,0.08-1.351,0.596-1.324,1.619c0.028,1.093,0.341,1.786,1.516,1.771c4.871-0.062,9.699,0.874,14.486,1.03
			c4.132,0.135,8.414-1.242,12.723-0.99c4.753,0.278,9.51,0.504,14.255,0.88c1.675,0.132,3.277-0.055,4.912-0.291
			c2.234-0.323,4.437,0.109,6.637,0.453c0.567,0.088,1.246,0.13,1.243,0.911c-0.002,0.722-0.599,1.024-1.195,0.971
			c-1.636-0.145-2.166,0.781-1.865,2.105c0.57,2.509-1.106,3.235-2.846,3.264c-3.529,0.059-7.068-0.243-10.597-0.49
			c-1.098-0.077-1.825-0.71-1.6-2.01c0.098-0.565,0.092-1.15,0.102-1.727c0.019-1.122-0.314-1.955-1.646-1.967
			c-1.263-0.012-1.683,0.656-1.784,1.849c-0.104,1.211,0.813,2.671-0.152,3.562c-1.15,1.061-2.845,0.403-4.3,0.478
			c-3.96,0.202-7.902-0.154-11.842-0.515c-0.164-0.015-0.367,0.027-0.487-0.053c-3.519-2.346-7.06-0.212-10.589-0.062
			c-0.823,0.036-1.646,0.151-2.466,0.13c-2.762-0.07-3.956-2.057-2.784-4.541C645.284,673.206,645.915,672.956,645.486,672.116z"/>
		<path fill-rule="evenodd" clip-rule="evenodd" fill="#00A79D" d="M829.107,713.318c-0.768,1.169-0.943,2.362-0.771,3.561
			c0.293,2.048-0.658,2.514-2.436,2.151c-0.482-0.099-0.991-0.074-1.467-0.194c-3.23-0.816-6.663,0.381-9.834-1.006
			c-0.686-0.3-1.27,0.211-1.904,0.277c-2.12,0.219-4.318,0.622-5.801-1.736c-1.641,3.146-4.297,1.314-6.404,1.236
			c-2.417-0.091-0.976-2.737-2.261-4.672c0.222,4.119-2.156,4.743-4.95,4.664c-2.292-0.065-1.438-2.349-2.313-3.686
			c-0.067,3.069-1.405,3.935-4.264,3.496c-2.017-0.31-2.787-1.018-2.631-2.958c0.046-0.568,0.01-1.172-0.136-1.72
			c-1.127-4.246,0.355-5.022,4.991-4.374c3.229,0.452,6.821,0.018,9.659,2.327c0.287,0.233,0.699,0.149,0.885-0.133
			c1.078-1.631,2.809-1.511,4.254-1.201c3.624,0.776,7.334,0.062,11,1.12c2.178,0.629,4.908,0.091,7.191-0.211
			c3.609-0.477,7.033,0.275,10.436,0.591c5.321,0.494,10.615,0.45,15.924,0.626c4.51,0.15,9.008,0.667,13.533,0.387
			c1.524-0.094,2.053,1.052,2.496,2.494c0.782-2.378,2.541-2.164,4.176-2.029c6.395,0.527,12.791,0.951,19.211,0.937
			c2.547-0.006,5.563-0.275,7.496,0.606c2.328,1.063,3.869-0.162,5.733-0.037c4.914,0.328,9.829,0.673,14.729,1.154
			c1.64,0.161,3.229,0.634,4.867,0.01c0.361-0.139,0.93-0.229,1.198-0.044c1.829,1.26,3.645,2.005,5.659,0.384
			c0.096-0.077,0.333-0.032,0.481,0.021c2.681,0.952,1.647,3.253,1.766,5.079c0.091,1.399-0.407,3.125-2.079,2.635
			c-4.855-1.426-9.722,0.412-14.514-0.385c-3.885-0.646-7.738-0.092-11.586-0.201c-3.189-0.09-6.474-0.996-9.656-0.749
			c-5.217,0.404-10.298-0.809-15.48-0.865c-2.955-0.032-6.082,0.127-9.021-0.337c-3.908-0.618-7.686-1.75-11.642-0.331
			c-1.047,0.375-1.642-0.592-2.093-1.377c-0.845-1.476-1.615-2.996-2.57-4.786c-0.778,1.397-1.283,2.589-1.391,3.877
			c-0.16,1.905-1.117,2.246-2.854,1.969c-2.584-0.41-5.186-0.953-7.828-0.584c-1.769,0.247-2.415-0.53-2.346-2.213
			c0.037-0.892-0.055-1.795-0.882-2.925c-1.011,2.039,0.554,5.584-3.671,5.134C827.469,718.815,830.717,715.13,829.107,713.318z"/>
		<path fill-rule="evenodd" clip-rule="evenodd" fill="#00A79D" d="M894.062,737.569c-0.004-0.329-0.01-0.659-0.012-0.989
			c-0.021-4.268,0.726-4.805,4.967-4.308c2.926,0.343,5.803,0.501,7.203,4.066c1.072-1.433,0.698-3.453,2.629-3.655
			c1.402-0.148,2.789,0.075,4.182,0.123c3.392,0.117,6.743,0.857,10.188,0.328c3.488-0.537,6.807-0.189,8.412,4.293
			c0.81-1.678,0.225-3.366,1.692-3.982c1.501-0.631,3.077-0.17,4.628-0.187c2.992-0.032,4.812,1.569,6.285,4.658
			c0.502-2.139-0.141-4.108,2.387-4.347c5.679-0.535,6.714-0.205,8.672,3.931c-0.111-3.032,1.421-3.509,3.7-3.464
			c4.86,0.096,9.693,0.68,14.54,0.741c2.779,0.035,5.619,0.469,8.342,0.013c3.902-0.654,6.387,1.728,9.064,3.668
			c1.076,0.778,0.867,2.299,0.257,3.438c-0.675,1.262-1.702,1.036-2.72,0.322c-0.189-0.133-0.527-0.29-0.677-0.211
			c-3.362,1.771-3.47-0.617-3.741-2.872c-0.078-0.64-0.535-1.035-1.223-0.957c-0.636,0.072-0.689,0.589-0.73,1.104
			c-0.039,0.49-0.077,0.987-0.193,1.463c-0.146,0.597-0.525,1.035-1.16,1.15c-0.646,0.115-1.158-0.134-1.388-0.756
			c-0.881-2.386-2.731-1.878-4.292-1.192c-2.426,1.064-5.316,0.118-7.521,1.9c-3.201-1.624-7.164,1.17-10.178-1.784
			c-0.681-0.667-1.584-0.822-2.152,0.436c-0.379,0.84-1.306,0.94-2.141,0.98c-2.702,0.129-5.4-0.219-8.059-0.307
			c-3.061-0.102-6.035-1.783-9.172-0.599c-0.555,0.21-1.594,0.212-1.889-0.134c-1.741-2.042-3.474-0.82-5.236-0.184
			c-2.346,0.848-4.601,1.204-6.676-0.759c-0.811-0.768-1.863-0.868-3-0.386c-1.131,0.479-2.357,0.736-3.541,1.09
			c-2.415,0.721-4.521,0.307-6.366-1.521c-0.909-0.9-2.038-1.85-2.351,0.547c-0.127,0.979-0.969,1.252-1.853,1.309
			c-3.977,0.252-7.731-0.301-10.896-3.002L894.062,737.569z"/>
		<path fill-rule="evenodd" clip-rule="evenodd" fill="#00A79D" d="M773.854,675.661c2.006,0.307,3.824,0.809,5.552,1.61
			c3.229,1.496,6.735,1.5,10.152,1.804c7.12,0.634,14.262,1.035,21.394,1.532c0.082,0.005,0.165,0.008,0.247,0.013
			c1.21,0.073,2.49,0.321,2.699,1.677c0.256,1.658-1.505,1.075-2.265,1.633c1.099,3.256,1.099,3.256-3.281,4.621
			c1.322,0.75,2.582,0.3,3.711,0.541c0.402,0.086,0.887,0.168,0.859,0.692c-0.029,0.558-0.521,0.556-0.93,0.514
			c-1.92-0.197-3.238,0.987-4.65,1.979c-1.326,0.929-2.443,1.073-2.949-0.87c-0.082-0.311-0.211-0.661-0.432-0.875
			c-2.107-2.047-0.266-1.894,1.104-2.002c0.406-0.032,0.814-0.042,1.521-0.075c-1.037-1.753-0.736-3.308,0.688-4.773
			c-0.641-0.187-1.024-0.4-1.406-0.396c-5.857,0.059-11.658-0.763-17.483-1.173c-9.887-0.695-19.757-0.049-29.633,0.089
			c-2.549,0.036-5.095,0.265-7.644,0.34c-0.799,0.023-1.769,0.061-2.088-0.925c-0.287-0.88,0.228-1.594,0.854-2.177
			c0.957-0.89,1.702-2.048,3.215-2.374c-1.471-1.256-2.339-2.179-0.523-3.941c1.018-0.986,1.219-2.963,1.471-4.543
			c0.23-1.442,0.717-2.289,2.256-2.364c6.243-0.304,12.482-0.692,18.728-0.921c3.249-0.12,3.081,0.039,3.192,3.358
			c0.045,1.348-0.26,2.805,0.062,3.989c0.758,2.784-0.829,2.925-2.729,3.013C774.981,675.683,774.417,675.661,773.854,675.661z"/>
		<path fill-rule="evenodd" clip-rule="evenodd" fill="#00A79D" d="M772.792,653.046c1.418,0.109,2.89,0.093,4.075-0.684
			c2.063-1.354,4.125-1.046,6.137-0.175c1.871,0.81,3.767,1.109,5.771,1.083c3.73-0.048,7.244,1.389,10.952,1.599
			c3.69,0.21,7.37,0.652,11.052,1.012c0.873,0.085,2.088-0.042,2.18,1.123c0.096,1.221-1.169,1.171-2.003,1.359
			c-1.284,0.29-2.606,0.421-3.881,0.74c-1.647,0.412-2.013,1.311-0.802,2.648c0.844,0.933,2.537,1.711,1.734,3.168
			c-0.795,1.441-2.512,0.708-3.87,0.623c-11.173-0.701-22.277-2.528-33.505-2.224c-4.273,0.117-8.541,0.577-12.826,0.503
			c-0.941-0.016-2.199,0.333-2.59-0.871c-0.43-1.321,0.939-1.744,1.672-2.453c0.116-0.112,0.281-0.172,0.408-0.276
			c0.783-0.64,2.719-0.256,2.447-1.516c-0.312-1.445-2.109-0.66-3.244-0.897c-1.606-0.337-3.225-0.616-4.834-0.937
			c-0.754-0.15-1.539-0.387-1.459-1.35c0.082-0.958,0.916-1.06,1.668-1.119c2.459-0.191,4.922-0.027,7.398-0.316
			C763.759,653.563,768.283,653.375,772.792,653.046z"/>
		<path fill-rule="evenodd" clip-rule="evenodd" fill="#00A79D" d="M880.674,736.531c-1.858,2.373-6.346,3.755-9.006,2.748
			c-2.061-0.779-3.898-1.238-6.275-0.295c-3.225,1.279-6.843,0.482-10.295,0.449c-0.952-0.009-1.505-0.575-1.438-1.615
			c0.052-0.788,0.334-1.627-0.395-2.314c-0.904,4.038-1.115,4.215-5.445,3.981c-1.477-0.08-2.943-0.328-4.416-0.489
			c-2.328-0.254-4.748-0.385-4.484-3.737c-0.371,0.097-0.598,0.085-0.664,0.183c-2.822,4.166-6.916,3.662-11.064,3.078
			c-1.145-0.16-1.808-0.62-1.977-1.799c-0.125-0.887-0.363-1.758-0.594-2.828c-0.263,0.275-0.477,0.395-0.521,0.561
			c-1.052,3.979-1.216,4.152-5.452,4.049c-1.97-0.047-3.932-0.348-5.9-0.5c-1.049-0.08-1.646-0.604-1.904-1.613
			c-0.246-0.957-0.625-1.884-0.818-2.85c-0.733-3.655,0.271-4.571,4.02-4.211c2.975,0.286,5.899,0.5,8.439,2.322
			c0.494,0.353,1.056,0.644,1.778,0.066c2.782-2.217,8.362-2.288,11.412-0.299c1.392,0.906,2.901,3.008,4.116-0.305
			c0.285-0.779,1.505-0.828,2.25-0.697c2.927,0.518,6.13-0.037,8.637,2.229c1.072,0.969,2.066,1.581,2.854-0.565
			c0.637-1.742,2.581-1.286,3.942-1.118c5.205,0.643,10.419,1.088,15.644,0.595c2.91-0.274,4.936,0.628,6.269,3.216
			c0.335,0.65,0.868,1.199,1.31,1.794L880.674,736.531z"/>
		<path fill-rule="evenodd" clip-rule="evenodd" fill="#00A79D" d="M794.113,731.607c-1.746,2.968-2.251,6.45-6.914,6.099
			c-3.588-0.271-6.514-0.571-8.125-4.769c-0.119,4.815-3.314,4.061-6.041,4.095c-1.071,0.013-2.146,0.032-3.214-0.032
			c-2.272-0.135-4.449-0.465-5.55-2.903c-0.229-0.507-0.641-1.103-1.288-0.986c-0.735,0.132-0.603,0.886-0.659,1.431
			c-0.102,0.982-0.43,1.941-1.504,1.97c-4.411,0.119-8.877,0.589-12.726-2.492c-1.72-1.377-1.812-3.046-1.493-4.872
			c0.316-1.81,1.948-1.375,3.171-1.662c3.606-0.852,7.034,0.008,10.457,0.988c1.37,0.393,2.668,0.689,3.95-0.391
			c0.437-0.368,1.336-0.552,1.874-0.372c3.356,1.122,7.099,0.388,10.3,2.192c0.938,0.527,1.842,0.784,2.451-0.513
			c0.271-0.575,0.865-0.724,1.466-0.756c2.63-0.147,5.334-0.748,7.874-0.337c4.902,0.795,9.834,0.162,14.726,0.799
			c4.199,0.547,6.622,3.15,6.005,6.828c-0.23,1.365-0.902,1.975-2.277,2.094c-3.07,0.266-6.072-0.381-9.107-0.559
			c-0.938-0.055-1.448-0.737-1.764-1.537C795.213,734.627,794.748,733.316,794.113,731.607z"/>
		<path fill-rule="evenodd" clip-rule="evenodd" fill="#00A79D" d="M669.785,680.602c6.579,0.29,14.667-0.483,22.721,0.435
			c0.677,0.077,1.842-0.248,1.879,0.665c0.045,1.151-1.194,0.88-1.929,0.898c-1.665,0.039-2.418,0.818-2.353,2.456
			c0.017,0.412,0.03,0.829-0.014,1.236c-0.142,1.275,0.579,2.869-0.575,3.753c-1.292,0.992-2.142-0.712-3.231-1.108
			c-1.681-0.612-3.12,0.244-4.48,0.872c-2.113,0.974-4.177,0.919-6.45,0.899c-6.5-0.059-12.945-1.326-19.462-0.753
			c-2.334,0.206-4.563-0.572-6.833-0.949c-0.729-0.12-1.449-0.345-2.181-0.382c-3.204-0.159-3.189-0.136-2.49-3.281
			c0.122-0.55,0.194-1.188,0.038-1.71c-0.812-2.71,0.671-3.069,2.849-3.052C654.281,680.635,661.289,680.602,669.785,680.602z"/>
		<path fill-rule="evenodd" clip-rule="evenodd" fill="#00A79D" d="M767.879,712.66c-1.146,4.448-4.67,5.374-7.453,2.772
			c-0.283-0.265-0.439-0.829-0.916-0.413c-2.129,1.857-4.561,0.585-6.838,0.62c-1.125,0.017-2.26-0.224-3.413-0.007
			c-2.459,0.462-4.225-0.255-4.79-2.933c-0.1-0.466-0.166-0.994-0.695-1.236c-0.428-0.038-0.566,0.242-0.615,0.583
			c-0.193,1.381,0.303,3.085-2.013,3.271c-2.991,0.24-4.093-0.293-4.938-2.756c-1.371-3.994,1.116-7.043,5.341-6.533
			c0.313,0.038,0.784,0.12,0.89,0.329c1.375,2.73,3.205,0.79,4.994,0.703c3.752-0.183,7.687-1.578,11.244,0.895
			c0.357,0.248,0.694,0.5,1.088,0.138c1.417-1.304,3.135-0.781,4.725-0.697c5.469,0.286,10.925,0.825,16.41,0.72
			c1.393-0.027,2.106,0.456,2.014,2.054c-0.092,1.545,0.287,3.113,0.24,4.666c-0.064,2.098-1.271,3.022-3.267,2.528
			c-2.571-0.637-5.097-1.057-7.784-0.646C769.787,717.069,768.004,716.195,767.879,712.66z"/>
		<path fill-rule="evenodd" clip-rule="evenodd" fill="#00A79D" d="M686.341,706.974c0.234-2.098,0.946-3.175,3.272-3.14
			c5.731,0.084,5.732-0.04,7.141,4.427c0.514-3.626,0.803-3.976,4.701-3.806c1.944,0.084,4.834-0.687,4.843,2.649
			c0.005,2.049,1.752,5.153-1.416,5.995c-5.013,1.333-7.123,1.231-7.694-1.708c-1.742,1.536-3.938,1.455-5.946,2.019
			c-2.054,0.577-3.16-0.085-3.598-2.11c-0.083-0.386-0.301-0.744-0.74-1.789c-0.196,2.557-0.801,4.076-3.193,3.774
			c-2.52-0.317-5.777,1.113-6.5-3.138c-1.234,2.399-7.3,3.688-9.229,2.111c-0.757-0.618-0.801-1.414-0.462-2.239
			c0.72-1.75,1.403-3.523,2.243-5.217c1.263-2.548,3.478-1.752,5.404-1.193c1.05,0.305,1.788,0.446,2.922,0.057
			c2.024-0.693,4.255-0.462,6.366-0.107C686.211,703.854,686.088,705.513,686.341,706.974z"/>
		<path fill-rule="evenodd" clip-rule="evenodd" fill="#00A79D" d="M716.238,710.642c0.118-0.557,0.323-1.11,0.341-1.67
			c0.148-4.565,1.161-3.628,4.456-3.238c1.955,0.231,4.645-0.427,5.577,2.546c0.186,0.59,1.042,0.452,1.268-0.302
			c0.181-0.603,0.503-0.933,1.058-1.238c4.154-2.283,5.443-1.591,5.771,3.16c0.384,5.586,0.313,5.466-5.399,5.048
			c-6.191-0.453-12.399-1.101-18.624-0.646c-2.251,0.165-3.18-0.702-3.583-2.932c-1.057-5.843,1.298-8.027,7.12-6.385
			c1.041,0.293,1.482,0.971,1.552,1.959c0.087,1.227,0.126,2.458,0.187,3.687C716.054,710.634,716.146,710.638,716.238,710.642z"/>
		<path fill-rule="evenodd" clip-rule="evenodd" fill="#00A79D" d="M681.639,734.543c-1.565-0.002-3.132-0.039-4.696,0.006
			c-4.318,0.124-6.08-2.977-6.935-6.115c-0.604-2.219,0.556-3.98,2.585-3.684c4.262,0.626,8.529-0.441,12.782,0.354
			c1.546,0.29,2.357,0.936,2.702,2.386c0.324,1.362,0.661,2.724,1.066,4.062c0.639,2.12-0.35,2.943-2.314,2.985
			C685.1,734.573,683.368,734.545,681.639,734.543z"/>
		<path fill-rule="evenodd" clip-rule="evenodd" fill="#00A79D" d="M630.779,723.434c3.888,0,7.267-0.009,10.646,0.012
			c0.403,0.002,0.801,0.182,1.207,0.248c5.479,0.896,6.302,2.25,4.901,7.864c-0.278,1.116-1.001,1.411-1.96,1.501
			c-5.007,0.472-10.012,0.033-15.015-0.094c-1.331-0.033-2.442-0.768-2.332-2.323c0.097-1.371,0.158-2.925,1.876-3.396
			C633.102,726.424,633.111,726.456,630.779,723.434z"/>
		<path fill-rule="evenodd" clip-rule="evenodd" fill="#00A79D" d="M699.873,735.065c-1.069,0-2.138,0.01-3.208-0.002
			c-3.315-0.035-6.828-3.873-6.63-7.177c0.082-1.359,0.635-2.127,2.063-2.247c4.844-0.407,9.668,0.153,14.501,0.25
			c0.744,0.015,1.127,0.567,1.471,1.163c3.112,5.397,1.946,7.605-4.251,7.966c-1.311,0.076-2.631,0.011-3.947,0.011
			C699.873,735.042,699.873,735.054,699.873,735.065z"/>
		<path fill-rule="evenodd" clip-rule="evenodd" fill="#00A79D" d="M718.004,726.154c2.556-0.024,5.109-0.062,7.639,0.438
			c0.834,0.164,1.751,0.249,1.883,1.266c0.262,2.037,0.664,4.067,0.511,6.145c-0.089,1.188-0.876,1.51-1.862,1.535
			c-4.533,0.113-9.061,0.057-13.569-0.529c-0.941-0.122-1.511-0.568-1.691-1.508c-0.109-0.566-0.259-1.126-0.365-1.693
			c-0.913-4.867-0.233-5.676,4.733-5.652C716.189,726.158,717.097,726.154,718.004,726.154z"/>
		<path fill-rule="evenodd" clip-rule="evenodd" fill="#00A79D" d="M657.946,724.188c2.284-0.071,5.015-0.145,7.661,0.528
			c3.018,0.767,2.327,3.646,2.868,5.694c0.462,1.749-1.214,1.889-2.467,2.365c-3.85,1.463-7.808,0.879-11.716,0.712
			c-2.685-0.114-5.43-6.034-4.095-8.375c0.493-0.864,1.323-0.901,2.142-0.915C654.064,724.168,655.791,724.188,657.946,724.188z"/>
		<path fill-rule="evenodd" clip-rule="evenodd" fill="#00A79D" d="M738.911,736.064c-2.776,0.566-5.724-0.87-8.641-2.179
			c-2.548-1.144-1.454-3.573-1.437-5.489c0.016-1.682,1.539-1.819,2.768-1.713c3.762,0.328,7.544-0.323,11.303,0.398
			c2.273,0.438,3.254,1.322,2.708,3.836C744.393,736.537,745.621,736.021,738.911,736.064z"/>
		<path fill-rule="evenodd" clip-rule="evenodd" fill="#00A79D" d="M942.061,721.225c-0.949,2.135-2.26,2.704-4.142,2.079
			c-1.542-0.512-2.635-3.257-2.274-5.848c0.292-2.113,1.928-1.881,3.209-1.667c3.6,0.604,7.209,0.393,10.817,0.461
			c2.433,0.046,3.85,1.645,3.743,4.141c-0.121,2.865-1.432,4.025-4.258,3.746c-1.224-0.121-2.438-0.346-3.664-0.402
			C943.177,723.625,943.175,723.662,942.061,721.225z"/>
		<path fill-rule="evenodd" clip-rule="evenodd" fill="#00A79D" d="M846.415,691.285c4.82-0.022,9.419,0.535,14.011-0.214
			c2.707-0.441,5.412,0.085,8.104,0.433c0.492,0.064,1.104,0.126,1.11,0.736c0.006,0.616-0.606,0.706-1.098,0.73
			c-3.772,0.19-7.526,0.857-11.321,0.486c-4.738-0.463-9.477-0.91-14.248-0.772c-1.396,0.041-1.357-0.012-1.969-1.878
			c-0.178-0.54-0.85-0.215-1.287-0.323c-1.195-0.295-2.682-0.431-2.613-2.053c0.059-1.438,1.158-2.531,2.529-2.662
			c2.445-0.233,4.926-0.186,7.387-0.115c1.127,0.033,1.628,0.82,1.748,1.999C848.951,689.459,848.82,690.955,846.415,691.285z"/>
		<path fill-rule="evenodd" clip-rule="evenodd" fill="#00A79D" d="M967.334,717.245c2.702,0.152,5.403,0.34,8.107,0.438
			c1.466,0.054,2.347,0.587,2.405,2.166c0.019,0.486,0.296,0.965,0.297,1.448c0.003,1.141,1.708,2.318,0.236,3.346
			c-1.424,0.994-3.203,0.77-4.765,0.211c-0.85-0.304-1.44-0.904-2.398-0.143c-0.713,0.566-1.209-0.006-1.369-0.775
			c-0.066-0.32-0.047-0.657-0.084-0.984c-0.141-1.27,0.11-3.386-1.148-3.382c-1.372,0.004-0.592,2.026-0.74,3.151
			c-0.152,1.162-0.348,2.212-1.762,2.225c-1.418,0.014-1.723-1.023-1.762-2.201c-0.023-0.741,0-1.489-0.086-2.224
			C963.861,717.079,963.85,717.08,967.334,717.245z"/>
		<path fill-rule="evenodd" clip-rule="evenodd" fill="#00A79D" d="M880.695,736.565c-0.011-0.741-0.037-1.483-0.033-2.225
			c0.015-1.825,0.953-2.683,2.769-2.728c4.734-0.121,8.837,0.846,10.632,5.956l-0.018-0.034c-1.212,3.072-1.257,3.072-5.281,2.574
			c-3.066-0.38-5.926-1.18-8.09-3.577L880.695,736.565z"/>
		<path fill-rule="evenodd" clip-rule="evenodd" fill="#00A79D" d="M797.643,673.769c-0.082,1.556-0.34,3.115-2.043,3.607
			c-1.793,0.518-2.635-0.834-3.419-2.167c-0.973-1.655-1.729-3.409-1.942-5.298c-0.168-1.49,0.025-3.044,1.814-3.637
			c1.744-0.578,2.802,0.339,3.635,1.746C796.744,669.805,797.645,671.635,797.643,673.769z"/>
		<path fill-rule="evenodd" clip-rule="evenodd" fill="#00A79D" d="M990.336,730.6c-2.987-0.012-6.105-5.145-4.865-7.659
			c0.309-0.624,0.767-1.061,1.491-1.149c3.073-0.373,7.106,4.174,6.359,7.227C992.9,730.741,991.426,730.551,990.336,730.6z"/>
		<path fill-rule="evenodd" clip-rule="evenodd" fill="#00A79D" d="M686.763,696.106c-1.535-0.117-3.1-0.144-4.631-0.386
			c-0.94-0.149-1.717-0.853-1.585-1.891c0.141-1.102,1.009-1.815,2.102-1.627c2.37,0.409,4.752,0.155,7.117,0.361
			c0.627,0.055,1.269,0.315,1.834,0.614c0.569,0.301,1.193,0.728,1.028,1.511c-0.15,0.71-0.756,1.127-1.427,1.191
			C689.735,696.017,688.259,696.037,686.763,696.106z"/>
		<path fill-rule="evenodd" clip-rule="evenodd" fill="#00A79D" d="M778.871,689.583c4.574-0.667,9.026-1.703,13.514-2.544
			c0.904-0.169,1.814,0.09,2.604,0.594c0.635,0.405,1.867,0.268,1.693,1.438c-0.158,1.058-1.128,1.424-2.067,1.409
			C789.373,690.396,784.153,689.819,778.871,689.583z"/>
		<path fill-rule="evenodd" clip-rule="evenodd" fill="#00A79D" d="M703.392,685.016c1.912,0.222,4.353,0.635,6.839,0.542
			c0.571-0.021,1.221,0.115,1.271,0.876c0.045,0.693-0.517,0.977-1.046,1.227c-0.868,0.411-1.756,0.206-2.665,0.145
			c-1.97-0.131-3.949-0.143-5.924-0.15c-0.973-0.004-2.18,0.366-2.281-1.112c-0.109-1.61,1.209-1.463,2.269-1.526
			C702.184,685,702.515,685.016,703.392,685.016z"/>
		<path fill-rule="evenodd" clip-rule="evenodd" fill="#00A79D" d="M954.428,720.335c0-0.576-0.012-1.151,0.002-1.726
			c0.025-1.007,0.351-1.766,1.523-1.849c1.124-0.08,1.993,0.304,2.252,1.445c0.393,1.722,0.01,3.431-0.465,5.069
			c-0.23,0.799-0.996,1.346-1.95,1.16c-0.856-0.166-1.157-0.882-1.257-1.642c-0.104-0.812-0.106-1.638-0.153-2.457
			C954.396,720.337,954.411,720.336,954.428,720.335z"/>
	</g>
</g>
<rect x="521.497" y="863" fill-rule="evenodd" clip-rule="evenodd" fill="none" width="444" height="75"/>
<text transform="matrix(1 0 0 1 555.7583 905.5996)" fill="#C7E5E2" font-family="'MyriadPro-Semibold'" font-size="60">NODESCHOOL</text>
<rect x="521.497" y="925" fill-rule="evenodd" clip-rule="evenodd" fill="none" width="444" height="75"/>
<text transform="matrix(1 0 0 1 554.311 955.1748)" fill="#C7E5E2" font-family="'MyriadPro-Semibold'" font-size="42.5">BAINBRIDGE ISLAND</text>
</svg>
